<svg width="300" height="300" viewBox="0 0 300 300" fill="none" xmlns="http://www.w3.org/2000/svg">
<g clip-path="url(#clip0_108_121)">
<path d="M411.236 0H-38.2022V300H411.236V0Z" fill="#E30A17"/>
<path d="M120.974 234.375C167.515 234.375 205.243 196.599 205.243 150C205.243 103.401 167.515 65.625 120.974 65.625C74.4329 65.625 36.7041 103.401 36.7041 150C36.7041 196.599 74.4329 234.375 120.974 234.375Z" fill="white"/>
<path d="M149.064 217.5C186.296 217.5 216.479 187.279 216.479 150C216.479 112.721 186.296 82.5 149.064 82.5C111.831 82.5 81.6479 112.721 81.6479 150C81.6479 187.279 111.831 217.5 149.064 217.5Z" fill="#E30A17"/>
<path d="M182.419 150.198L209.498 140.06L210.76 111.142L228.757 133.794L256.616 126.06L240.66 150.198L256.616 174.336L228.757 166.602L210.76 189.254L209.498 160.336L182.419 150.198Z" fill="white"/>
</g>
<defs>
<clipPath id="clip0_108_121">
<rect width="300" height="300" fill="white"/>
</clipPath>
</defs>
</svg>
