<svg width="65" height="34" viewBox="0 0 65 34" fill="none" xmlns="http://www.w3.org/2000/svg">
<g clip-path="url(#clip0_1_8)">
<path d="M3.37911 33.7597C3.19332 33.6496 3.01059 33.5786 2.97304 33.6018C2.77766 33.7226 3.0223 33.1971 4.25139 30.856L5.59762 28.2918L18.2925 25.0216C25.2747 23.2229 31.0825 21.7219 31.1986 21.6859C31.3584 21.6365 31.4383 21.5198 31.5268 21.2062C31.5959 20.9617 31.6124 20.7604 31.5672 20.7152C31.522 20.6699 31.0571 20.8315 30.4332 21.1093C29.8517 21.3683 29.3071 21.5802 29.223 21.5802C29.0279 21.5802 28.9513 21.4256 28.7673 20.6612C28.6508 20.1771 28.5845 20.0414 28.4645 20.0414C28.38 20.0414 27.6661 20.3107 26.878 20.6398C26.0899 20.9689 25.3759 21.2382 25.2913 21.2382C25.0902 21.2382 24.9635 20.9892 24.9025 20.474C24.8612 20.1252 24.8795 20.0401 25.0137 19.9565C25.102 19.9014 26.5204 19.2717 28.1657 18.557C30.2582 17.6481 31.1656 17.2136 31.1853 17.1112C31.2008 17.0306 31.152 16.7529 31.0767 16.4941C30.9702 16.1277 30.9023 16.0235 30.7704 16.0235C30.6771 16.0235 30.1701 16.1966 29.6437 16.4082C28.6501 16.8076 28.4296 16.8566 28.3328 16.7C28.2491 16.5647 27.7817 14.5083 27.7817 14.2758C27.7817 14.1671 27.8297 14.042 27.8885 13.9977C27.9473 13.9534 29.9188 13.1922 32.2698 12.306C34.6207 11.4199 36.5984 10.6455 36.6648 10.5853C36.767 10.4925 36.718 10.3833 36.3442 9.87105C36.1015 9.53845 35.903 9.20806 35.903 9.13685C35.903 8.9978 36.5436 8.68501 36.9766 8.61268C37.224 8.57134 37.2625 8.60628 37.6926 9.26142C37.9876 9.7108 38.2023 9.95384 38.304 9.95384C38.3903 9.95384 40.5596 9.18057 43.1247 8.23547C45.6898 7.29038 47.8405 6.53704 47.904 6.56142C47.9782 6.58989 48.0755 6.96265 48.1759 7.60247C48.2619 8.15066 48.3777 8.66146 48.4334 8.73757C48.5234 8.86074 49.1722 8.63008 54.3433 6.63636C57.5381 5.40463 60.3247 4.33799 60.5357 4.26606C60.8552 4.1572 60.9509 4.07049 61.1078 3.7474C61.2884 3.37582 61.3457 3.33605 62.47 2.80223C63.1155 2.49576 63.7395 2.23875 63.8566 2.23112C64.0604 2.21783 64.0779 2.25716 64.2684 3.15757C64.3778 3.67479 64.5231 4.28043 64.5914 4.50348C64.6596 4.72653 64.7392 5.08237 64.7682 5.29424C64.8132 5.622 64.7991 5.67947 64.674 5.67947C64.5932 5.67947 64.0192 5.89103 63.3984 6.14965C62.2333 6.63507 61.9642 6.6882 61.5074 6.523C61.2564 6.43229 60.9067 6.56557 55.9145 8.6547C52.9857 9.88036 50.5777 10.8953 50.5635 10.9101C50.4829 10.9938 50.5043 11.2802 50.6462 12.0155C50.7335 12.4676 50.7834 12.8908 50.7571 12.9559C50.7308 13.0209 48.7243 13.896 46.2982 14.9005C42.018 16.6726 41.8871 16.7336 41.8871 16.957C41.8871 17.0836 42.1356 18.2755 42.4394 19.6056C43.0953 22.4779 43.1694 22.9636 43.1694 24.3883C43.1694 25.8776 43.0463 26.7582 42.6834 27.8635C42.2373 29.2225 41.7547 30.0064 40.7538 30.998C40.102 31.6439 39.7751 31.896 39.2578 32.1521L38.5958 32.4798H37.1381H35.6803L35.0864 32.1839C34.3829 31.8333 33.3275 30.921 32.7742 30.1852C32.2585 29.4992 31.6702 28.3209 31.4947 27.622C31.4028 27.2563 31.3071 27.0551 31.2141 27.0322C31.093 27.0025 8.02729 31.0264 7.4356 31.1805C7.23734 31.2321 4.2648 33.7318 4.20132 33.9002C4.14994 34.0366 3.72355 33.9637 3.37911 33.7597Z" fill="black" fill-opacity="0.533333"/>
<path d="M0.518893 31.5805C0.333109 31.4704 0.15038 31.3994 0.112827 31.4226C-0.0825544 31.5434 0.1621 31.0178 1.39118 28.6768L2.73741 26.1126L15.4323 22.8423C22.4145 21.0437 28.2223 19.5427 28.3384 19.5067C28.4982 19.4572 28.5781 19.3406 28.6666 19.027C28.7357 18.7825 28.7522 18.5812 28.707 18.536C28.6617 18.4907 28.1969 18.6523 27.573 18.9301C26.9915 19.1891 26.4469 19.4009 26.3628 19.4009C26.1677 19.4009 26.091 19.2463 25.9071 18.4819C25.7906 17.9979 25.7243 17.8622 25.6043 17.8622C25.5198 17.8622 24.8059 18.1314 24.0178 18.4606C23.2297 18.7897 22.5156 19.059 22.4311 19.059C22.23 19.059 22.1033 18.81 22.0423 18.2948C22.001 17.946 22.0193 17.8609 22.1535 17.7773C22.2418 17.7222 23.6602 17.0924 25.3055 16.3778C27.398 15.4688 28.3054 15.0344 28.3251 14.9319C28.3406 14.8513 28.2918 14.5737 28.2165 14.3149C28.11 13.9485 28.0421 13.8443 27.9101 13.8443C27.8169 13.8443 27.3099 14.0174 26.7835 14.2289C25.7899 14.6283 25.5694 14.6774 25.4726 14.5208C25.3889 14.3855 24.9214 12.3291 24.9214 12.0966C24.9214 11.9879 24.9695 11.8627 25.0283 11.8185C25.0871 11.7742 27.0586 11.013 29.4095 10.1268C31.7605 9.24065 33.7382 8.46633 33.8046 8.40608C33.9068 8.31335 33.8578 8.20411 33.484 7.69183C33.2413 7.35924 33.0428 7.02884 33.0428 6.95763C33.0428 6.8186 33.6834 6.50583 34.1164 6.43345C34.3637 6.39213 34.4023 6.42705 34.8324 7.0822C35.1274 7.5316 35.342 7.77464 35.4438 7.77464C35.5301 7.77464 37.6994 7.00138 40.2645 6.05626C42.8296 5.11114 44.9803 4.35783 45.0438 4.38221C45.118 4.41069 45.2153 4.78347 45.3157 5.42325C45.4016 5.97146 45.5175 6.48224 45.5732 6.55832C45.6632 6.68152 46.312 6.45088 51.4831 4.45716C54.6779 3.22539 57.4644 2.15874 57.6755 2.08688C57.995 1.97799 58.0907 1.89126 58.2476 1.56822C58.4282 1.19662 58.4855 1.15683 59.6098 0.62305C60.2553 0.31656 60.8793 0.0595504 60.9964 0.0518765C61.2002 0.0385795 61.2177 0.0779575 61.4082 0.978364C61.5176 1.49556 61.6629 2.10123 61.7312 2.32428C61.7994 2.5473 61.879 2.90314 61.908 3.11502C61.9529 3.44277 61.9389 3.50025 61.8138 3.50025C61.733 3.50025 61.159 3.71184 60.5382 3.97042C59.373 4.45584 59.104 4.50897 58.6472 4.34382C58.3962 4.25304 58.0465 4.38637 53.0543 6.47552C50.1255 7.70118 47.7175 8.71607 47.7033 8.73087C47.6227 8.81461 47.6441 9.101 47.786 9.83629C47.8733 10.2884 47.9232 10.7116 47.8969 10.7766C47.8706 10.8417 45.8641 11.7168 43.438 12.7213C39.1578 14.4934 39.0269 14.5544 39.0269 14.7778C39.0269 14.9044 39.2754 16.0963 39.5792 17.4264C40.2351 20.2987 40.3092 20.7843 40.3092 22.2091C40.3092 23.6984 40.1861 24.579 39.8232 25.6843C39.3771 27.0433 38.8945 27.8272 37.8936 28.8188C37.2418 29.4646 36.9149 29.7168 36.3976 29.9729L35.7356 30.3006H34.2779H32.8201L32.2262 30.0046C31.5227 29.6541 30.4673 28.7418 29.914 28.006C29.3983 27.3201 28.81 26.1417 28.6345 25.4428C28.5426 25.0772 28.4469 24.8759 28.3539 24.853C28.2328 24.8233 5.16708 28.8472 4.57539 29.0013C4.37714 29.0529 1.4046 31.5525 1.34111 31.721C1.28973 31.8574 0.863343 31.7845 0.518893 31.5805Z" fill="black"/>
</g>
<defs>
<clipPath id="clip0_1_8">
<rect width="64.7916" height="33.9698" fill="white"/>
</clipPath>
</defs>
</svg>
