<svg width="125" height="30" viewBox="0 0 125 30" fill="none" xmlns="http://www.w3.org/2000/svg">
<path d="M16.0692 28.9117L18.0245 28.736L19.9797 28.5602L20.4067 27.3426C20.6416 26.6729 20.8468 25.7825 20.8627 25.3639L20.8917 24.6029L21.201 25.44L21.5103 26.2771H28.7866H29.2725L29.0821 25.9727L28.8918 25.6683H26.9081H24.9243V25.4096V25.1508L28.5432 24.9332C30.5335 24.8136 32.7164 24.6033 33.3939 24.466L34.6259 24.2163L32.393 24.1813L30.1601 24.1462V23.8418V23.5374H32.2959H34.4318L35.1459 23.269C35.5387 23.1214 36.7604 22.9502 37.8609 22.8885L39.8616 22.7764L39.9555 23.5764L40.0833 24.6029L42.8189 25.1512V23.7506V22.35L43.3146 22.0759L43.8103 21.8017L43.2737 21.5982L42.7371 21.3947L43.5283 20.7157L44.3195 20.0367L44.4414 18.8191L44.5632 17.6014L44.615 19.0474L44.6668 20.4933L45.0518 20.5343C45.2635 20.5569 45.8525 20.5911 46.3607 20.6104L47.2847 20.6455L47.5887 21.3305L47.8927 22.0154H48.4356H48.9786L48.9828 20.265C48.9851 19.3023 49.0706 18.2064 49.1727 17.8297L49.3584 17.1448H50.6699H51.9814L52.1739 18.0961C52.2798 18.6193 52.3664 19.4767 52.3664 20.0015V20.9557L52.9824 21.3359L53.5984 21.7161V22.9312V24.1462L53.7833 24.1813C54.4185 24.2006 55.2154 24.1941 55.5542 24.1668C55.893 24.1395 56.5166 23.9907 56.9401 23.8362C57.3636 23.6817 58.6109 23.4966 59.712 23.425L61.7139 23.2946L61.6222 22.6819L61.5304 22.0693L61.8531 21.8721C62.0306 21.7637 62.1759 21.4718 62.1759 21.2235V20.772L57.1711 20.8118L52.5518 20.8516L52.5453 20.5963C52.5417 20.4559 52.6413 20.0192 53.2378 19.6259C53.8342 19.2325 54.7464 18.5476 55.2647 18.1038C55.7831 17.6601 55.5268 17.9514 54.6951 18.7512L53.183 20.2055L57.7565 20.1211L62.3299 20.0367L62.4163 16.3076L62.5028 12.5786H62.2822C62.1609 12.5786 61.7113 12.8868 61.2831 13.2635L60.5047 13.9485L61.5011 12.7887L62.4974 11.6289L62.3185 11.3428L62.1395 11.0566H62.4657H62.7918L62.8416 9.0018L62.8914 6.94703L63.1094 9.23011C63.2292 10.4858 63.3454 13.7311 63.3675 16.4419L63.4078 21.3706L63.7158 21.5587L64.0238 21.7469V22.5687V23.3906L65.1778 23.4797L66.1661 23.5688L66.2688 23.8575L66.3714 24.1462L66.7656 24.1421C67.6408 24.1398 67.7937 24.0553 68.1749 23.9544L68.8678 23.7708V23.0633V22.3557L69.1758 22.1676L69.4838 21.9795V20.3612C69.4838 19.4712 69.5704 18.3149 69.6763 17.7917L69.8688 16.8404H71.5242H73.1796V18.0581V19.2757H73.4757H73.7719L74.1267 17.9819C74.3219 17.2704 74.6456 16.0673 74.846 15.3084L75.2105 13.9286L75.0867 12.6448L74.9628 11.361H74.3973H73.8319L73.6418 11.0571L73.4518 10.7531L74.1626 10.8288L74.8735 10.9044L75.2116 6.79489C75.3975 4.53464 75.5791 2.82233 75.6151 2.98976C75.6511 3.15719 75.6645 4.69826 75.6449 6.41437L75.6092 9.53458H76.6786H77.748L77.8639 9.19108L77.9797 8.84757L78.3195 9.94165L78.6592 11.0357L78.0692 11.2208L77.4792 11.4059L78.1435 11.9376L78.8078 12.4693L77.6106 13.1885L76.4134 13.9078L76.9524 14.0266C77.2488 14.0919 77.4914 14.2577 77.4914 14.3949C77.4914 14.5321 77.2835 14.7233 77.0294 14.8196L76.5674 14.9949V16.4617V17.9285L77.1654 17.973L77.7634 18.0175L77.8861 17.0485L78.0088 16.0794L78.0581 17.0496L78.1073 18.0198L79.1853 17.8469L80.2632 17.674V18.3444V19.0148L79.8013 19.4714C79.5472 19.7225 79.3393 20.1237 79.3393 20.3629V20.7978H80.4172H81.4952V22.1676V23.5374L82.3421 23.496L83.1891 23.4545L82.4961 23.3226L81.8032 23.1907V22.2986V21.4066H84.4029H87.0026L87.1929 21.711L87.3833 22.0154H89.983H92.5827V22.3065V22.5975L90.3498 22.687L88.1169 22.7764L88.06 23.5374L88.0032 24.2985L88.1637 23.7448L88.3242 23.1912L90.9924 23.3599C92.46 23.4527 93.834 23.6096 95.2315 23.7084L97.7724 23.8882V24.1694V24.4507H95.6165H93.4606V24.7551V25.0595H104.457H104.286L104.477 24.7551C104.581 24.5877 104.867 24.4507 105.111 24.4507H105.555L105.56 26.201L105.565 27.9514L105.8 28.3172L106.035 28.683L109.036 28.7894C110.301 28.848 97.7564 28.8994 64.6403 28.9038L16.0692 28.9117ZM42.3387 26.0969C42.6024 25.9953 42.8182 25.7898 42.8182 25.6403V25.3336L40.8468 25.3275H40.1418V25.8189V26.2756H40.3673C41.4374 26.2756 42.075 26.1985 42.3387 26.0969ZM57.9613 16.2697C57.2011 16.9213 56.7754 17.2679 56.6842 17.3095C56.6154 17.3409 56.9022 17.0766 57.5446 16.5167C58.1449 15.9479 59.0415 15.14 59.5372 14.7215L60.9613 13.5134L59.9539 14.4745C59.7222 14.7727 58.8256 15.5805 57.9613 16.2697Z" fill="black" fill-opacity="0.470588"/>
<path d="M15.1913 27.0586L17.1465 26.8828L19.1017 26.7071L19.5287 25.4894C19.7636 24.8197 19.9688 23.9293 19.9847 23.5108L20.0137 22.7497L20.323 23.5869L20.6323 24.424H27.9086H28.3945L28.2041 24.1196L28.0138 23.8152H26.0301H24.0463V23.5564V23.2977L27.6652 23.0801C29.6555 22.9604 31.8384 22.7501 32.5159 22.6128L33.7479 22.3631L31.515 22.3281L29.2821 22.2931V21.9887V21.6843H31.4179H33.5538L34.268 21.4159C34.6607 21.2683 35.8825 21.0971 36.9829 21.0354L38.9836 20.9233L39.0775 21.7233L39.2053 22.7497L41.9409 23.2981V21.8975V20.4969L42.4366 20.2227L42.9323 19.9486L42.3957 19.745L41.8591 19.5415L42.6503 18.8626L43.4415 18.1836L43.5634 16.9659L43.6853 15.7483L43.737 17.1943L43.7888 18.6402L44.1738 18.6812C44.3855 18.7038 44.9745 18.738 45.4827 18.7573L46.4067 18.7924L46.7107 19.4773L47.0147 20.1622H47.5576H48.1006L48.1048 18.4119C48.1071 17.4492 48.1926 16.3533 48.2947 15.9766L48.4804 15.2917H49.7919H51.1034L51.2959 16.243C51.4018 16.7662 51.4884 17.6236 51.4884 18.1484V19.1026L52.1044 19.4828L52.7204 19.863V21.0781V22.2931L52.9053 22.3282C53.5405 22.3474 54.3374 22.3409 54.6762 22.3136C55.015 22.2863 55.6386 22.1376 56.0621 21.9831C56.4856 21.8286 57.7329 21.6435 58.834 21.5718L60.8359 21.4415L60.7442 20.8288L60.6524 20.2161L60.9752 20.019C61.1526 19.9106 61.2979 19.6187 61.2979 19.3704V18.9189L56.2931 18.9587L51.6738 18.9985L51.6673 18.7432C51.6637 18.6028 51.7633 18.1661 52.3598 17.7728C52.9563 17.3794 53.8684 16.6945 54.3867 16.2507C54.9051 15.8069 54.6488 16.0983 53.8171 16.8981L52.3051 18.3524L56.8785 18.2679L61.4519 18.1835L61.5384 14.4545L61.6248 10.7255H61.4042C61.2829 10.7255 60.8333 11.0337 60.4051 11.4104L59.6267 12.0953L60.6231 10.9356L61.6194 9.7758L61.4405 9.48962L61.2615 9.20343H61.5877H61.9138L61.9636 7.14867L62.0134 5.0939L62.2314 7.37697C62.3512 8.63267 62.4674 11.878 62.4896 14.5887L62.5298 19.5175L62.8378 19.7056L63.1458 19.8937V20.7156V21.5375L64.2998 21.6265L65.2881 21.7156L65.3908 22.0043L65.4934 22.2931L65.8876 22.289C66.7628 22.2867 66.9157 22.2022 67.2969 22.1013L67.9898 21.9177V21.2101V20.5026L68.2978 20.3145L68.6058 20.1263V18.5081C68.6058 17.6181 68.6924 16.4618 68.7983 15.9386L68.9908 14.9873H70.6462H72.3016V16.2049V17.4226H72.5978H72.8939L73.2487 16.1288C73.4439 15.4173 73.7676 14.2142 73.9681 13.4553L74.3326 12.0755L74.2087 10.7917L74.0848 9.5079H73.5193H72.9539L72.7638 9.20394L72.5738 8.89999L73.2846 8.97564L73.9955 9.05129L74.3336 4.94175C74.5195 2.68151 74.7011 0.9692 74.7371 1.13663C74.7731 1.30405 74.7865 2.84513 74.7669 4.56124L74.7312 7.68144H75.8006H76.87L76.9859 7.33794L77.1017 6.99444L77.4415 8.08851L77.7812 9.18259L77.1912 9.36767L76.6012 9.55276L77.2655 10.0844L77.9298 10.6161L76.7326 11.3354L75.5354 12.0546L76.0744 12.1734C76.3709 12.2388 76.6134 12.4045 76.6134 12.5418C76.6134 12.679 76.4055 12.8701 76.1514 12.9665L75.6894 13.1417V14.6085V16.0754L76.2874 16.1199L76.8854 16.1644L77.0081 15.1953L77.1308 14.2263L77.1801 15.1965L77.2293 16.1666L78.3073 15.9938L79.3852 15.8209V16.4913V17.1616L78.9233 17.6183C78.6692 17.8694 78.4613 18.2706 78.4613 18.5097V18.9446H79.5392H80.6172V20.3145V21.6843L81.4641 21.6428L82.3111 21.6014L81.6181 21.4695L80.9252 21.3375V20.4455V19.5534H83.5249H86.1246L86.3149 19.8578L86.5053 20.1623H89.105H91.7047V20.4533V20.7444L89.4718 20.8338L87.2389 20.9233L87.1821 21.6843L87.1253 22.4453L87.2858 21.8917L87.4463 21.338L90.1145 21.5068C91.5821 21.5996 92.9561 21.7564 94.3536 21.8553L96.8945 22.0351V22.3163V22.5975H94.7385H92.5827V22.9019V23.2064H103.58H103.408L103.599 22.9019C103.703 22.7345 103.989 22.5975 104.233 22.5975H104.677L104.682 24.3479L104.687 26.0983L104.922 26.4641L105.157 26.8299L108.158 26.9363C109.423 26.9948 96.8786 27.0463 63.7624 27.0507L15.1913 27.0586ZM41.4607 24.2438C41.7244 24.1421 41.9402 23.9367 41.9402 23.7871V23.4804L39.9688 23.4743H39.2638V23.9658V24.4224H39.4893C40.5594 24.4224 41.197 24.3454 41.4607 24.2438ZM57.0833 14.4166C56.3231 15.0682 55.8974 15.4148 55.8062 15.4564C55.7374 15.4877 56.0242 15.2235 56.6666 14.6635C57.2669 14.0947 58.1635 13.2869 58.6592 12.8683L60.0834 11.6602L59.0759 12.6214C58.8442 12.9196 57.9476 13.7274 57.0833 14.4166Z" fill="#4FFFFF" stroke="black" stroke-width="0.964409"/>
</svg>
