<svg xmlns="http://www.w3.org/2000/svg" viewBox="0 0 120 90">

<g id="background"><rect width="120" height="90" fill="#cce"/></g>
<g id="province-names"></g>
<g id="borders"></g>
<g id="units"><g><circle cx="20" cy="20" r="10" fill="#1b4f9c" stroke="black" stroke-width="2"/><text x="20" y="25" font-size="15" font-weight="bold" fill="black" text-anchor="middle">A</text></g>
<g><circle cx="60" cy="70" r="10" fill="#1b4f9c" stroke="black" stroke-width="2"/><text x="60" y="75" font-size="15" font-weight="bold" fill="black" text-anchor="middle">F</text></g></g>
<g id="orders"><g><path d="M 26.25 27.81 L 43.12 48.9 Q 59.5 62.19 74.38 52.03 L 88.76 34.06" fill="none" stroke="rgba(0,0,0,1)" stroke-width="8" stroke-dasharray="none"/><path d="M 26.25 27.81 L 43.12 48.9 Q 59.5 62.19 74.38 52.03 L 88.76 34.06" fill="none" stroke="#1b4f9c" stroke-width="3" stroke-dasharray="none"/><path d="M 87.58 33.12 L 84.07 30.31 L 93.75 27.81 L 93.44 37.8 L 89.93 34.99" fill="#1b4f9c" stroke="rgba(0,0,0,1)" stroke-width="2.5"/></g>
<g><path d="M 60 55 C 66.67 54.69 66.67 54.06 60 53.75 C 53.33 53.44 53.33 52.81 60 52.5" fill="none" stroke="rgba(0,0,0,1)" stroke-width="8" stroke-dasharray="none"/><path d="M 60 55 C 66.67 54.69 66.67 54.06 60 53.75 C 53.33 53.44 53.33 52.81 60 52.5" fill="none" stroke="#1b4f9c" stroke-width="3" stroke-dasharray="none"/><circle cx="60" cy="52.5" r="5" fill="white" stroke="black" stroke-width="2.5"/></g></g>
<g id="foreground"></g>
</svg>