<svg xmlns="http://www.w3.org/2000/svg" viewBox="0 0 600 400">
<defs><style>.label{font-family:serif}</style></defs>
<defs><pattern patternTransform="rotate(45)" height="8" width="8" patternUnits="userSpaceOnUse" id="highlightedStripes"><line stroke-width="2" stroke-opacity="0.6" stroke="#FFFFFF" y2="8" x2="0" y1="0" x1="0"/></pattern></defs>
<g id="background"><rect width="600" height="400" fill="#cce"/></g>
<g id="province-fills"><path d="M105 70 L210 65 L235 130 L200 200 L110 205 L90 135 Z" fill="rgba(27, 79, 156, 0.4)" stroke="none" stroke-width="1"/>
<path d="M250 235 L360 230 L385 295 L350 365 L255 370 L230 300 Z" fill="rgba(255, 255, 255, 0.8)" stroke="white" stroke-width="5"/>
<path d="M395 70 L510 65 L535 130 L500 200 L405 205 L375 135 Z" fill="rgba(59, 156, 59, 0.3)" stroke="#FFFFFF" stroke-width="5"><animate attributeName="stroke-width" values="5;7;5" dur="2s" repeatCount="indefinite"/></path>
<path d="M395 70 L510 65 L535 130 L500 200 L405 205 L375 135 Z" fill="url(#highlightedStripes)" stroke="none" pointer-events="none"/></g>
<g id="supply-center-markers"><g><circle cx="110" cy="175" r="7" fill="white" stroke="black" stroke-width="2" opacity="0.8"/><circle cx="110" cy="175" r="4" fill="white" stroke="black" stroke-width="2" opacity="0.8"/></g>
<g><circle cx="490" cy="175" r="7" fill="white" stroke="black" stroke-width="2" opacity="0.8"/><circle cx="490" cy="175" r="4" fill="white" stroke="black" stroke-width="2" opacity="0.8"/></g></g>
<g id="province-names"><text x="135" y="100">A</text></g>
<g id="borders"><path d="M305 65 L305 225 L255 365" fill="none" stroke="#6b6b80" stroke-width="2"/></g>
<g id="foreground"><circle cx="300" cy="200" r="3"/></g>
<g id="units"><g><circle cx="150" cy="130" r="10" fill="#1b4f9c" stroke="black" stroke-width="2"/><text x="150" y="135" font-size="15" font-weight="bold" fill="black" text-anchor="middle">A</text></g>
<g><circle cx="308" cy="308" r="10" fill="#3b9c3b" stroke="black" stroke-width="2" opacity="0.7"/><text x="308" y="313" font-size="15" font-weight="bold" fill="black" text-anchor="middle">F</text></g></g>
<g id="orders"><g><polygon points="165.68,136.49 156.49,145.68 143.51,145.68 134.32,136.49 134.32,123.51 143.51,114.32 156.49,114.32 165.68,123.51" fill="transparent" stroke="rgba(0,0,0,1)" stroke-width="3"/><g transform="rotate(45, 150, 145.68)"><g><line x1="142" y1="145.68" x2="158" y2="145.68" stroke="black" stroke-width="7"/><line x1="150" y1="137.68" x2="150" y2="153.68" stroke="black" stroke-width="7"/></g><g><line x1="144" y1="145.68" x2="156" y2="145.68" stroke="red" stroke-width="3"/><line x1="150" y1="139.68" x2="150" y2="151.68" stroke="red" stroke-width="3"/></g></g></g>
<g><circle cx="450" cy="130" r="10" fill="#3b9c3b" stroke="black" stroke-width="2" opacity="0.6"/><text x="450" y="135" font-size="15" font-weight="bold" fill="black" text-anchor="middle" opacity="0.6">F</text><g transform="rotate(90, 458, 122)"><g><line x1="452" y1="122" x2="464" y2="122" stroke="white" stroke-width="5"/><line x1="458" y1="116" x2="458" y2="128" stroke="white" stroke-width="5"/></g><g><line x1="453" y1="122" x2="463" y2="122" stroke="green" stroke-width="3"/><line x1="458" y1="117" x2="458" y2="127" stroke="green" stroke-width="3"/></g></g></g>
<g transform="rotate(90, 318, 302)"><g><line x1="318" y1="296" x2="318" y2="308" stroke="white" stroke-width="5"/></g><g><line x1="318" y1="297" x2="318" y2="307" stroke="red" stroke-width="3"/></g></g></g>
</svg>