<svg width="300" height="300" viewBox="0 0 300 300" fill="none" xmlns="http://www.w3.org/2000/svg">
<g clip-path="url(#clip0_106_325)">
<path d="M300 0H0V300H300V0Z" fill="#012169"/>
<g clip-path="url(#clip1_106_325)">
<path d="M224 0H-76V150H224V0Z" fill="#012169"/>
<path d="M-76 0L224 150L-76 0ZM224 0L-76 150L224 0Z" fill="black"/>
<path d="M-76 0L224 150M224 0L-76 150" stroke="white" stroke-width="30"/>
<mask id="mask0_106_325" style="mask-type:luminance" maskUnits="userSpaceOnUse" x="-76" y="0" width="300" height="150">
<path d="M74 75H224V150L74 75ZM74 75V150H-76L74 75ZM74 75H-76V0L74 75ZM74 75V0H224L74 75Z" fill="white"/>
</mask>
<g mask="url(#mask0_106_325)">
<path d="M-76 0L224 150L-76 0ZM224 0L-76 150L224 0Z" fill="black"/>
<path d="M-76 0L224 150M224 0L-76 150" stroke="#C8102E" stroke-width="20"/>
</g>
<path d="M74 0V150V0ZM-76 75H224H-76Z" fill="black"/>
<path d="M74 0V150M-76 75H224" stroke="white" stroke-width="50"/>
<path d="M74 0V150V0ZM-76 75H224H-76Z" fill="black"/>
<path d="M74 0V150M-76 75H224" stroke="#C8102E" stroke-width="30"/>
</g>
<path fill-rule="evenodd" clip-rule="evenodd" d="M213.609 198.245L209.94 160.898C209.923 148.733 208.246 144.772 208.246 144.772C206.171 136.284 207.491 132.028 208.264 130.774C213.626 123.417 219.253 124.966 219.253 124.966C213.891 133.171 216.496 138.024 217.725 140.845C218.854 148.767 217.277 161.464 217.277 161.464C219.535 147.318 217.617 145.063 218.289 140.445C220.459 134.026 226.228 131.714 229.743 130.653C227.671 136.595 229.398 142.468 229.199 146.669C228.8 153.471 224.333 162.596 224.333 162.596L213.609 198.245Z" fill="#FDD502" stroke="#806600" stroke-width="0.769226"/>
<path d="M218.982 125.039C213.195 126.339 211.997 134.542 211.997 134.542C211.997 134.542 212.197 140.844 213.893 147.045C214.292 152.047 213.494 166.051 213.494 166.051L213.893 195.86" stroke="#806600" stroke-width="0.769226"/>
<path d="M229.259 130.941C229.259 130.941 224.27 136.742 223.771 138.643C222.574 143.945 222.773 146.645 223.272 151.647C222.175 158.449 219.78 166.752 219.78 166.752L214.093 192.559" stroke="#806600" stroke-width="0.769226"/>
<path fill-rule="evenodd" clip-rule="evenodd" d="M213.066 198.017L195.421 164.92C190.761 153.687 187.701 150.67 187.701 150.67C182.543 143.625 182.138 139.187 182.373 137.731C184.519 128.878 190.309 128.15 190.309 128.15C188.487 137.788 192.747 141.272 194.959 143.406C199.025 150.292 202.416 162.628 202.416 162.628C199.102 148.692 196.469 147.345 195.327 142.82C194.881 136.058 199.329 131.708 202.172 129.38C202.525 135.664 206.363 140.427 207.782 144.385C210.01 150.823 209.366 160.967 209.366 160.967L213.066 198.017Z" fill="#FDD502" stroke="#806600" stroke-width="0.769226"/>
<path d="M190.086 128.321C185.236 131.743 187.261 139.78 187.261 139.78C187.261 139.78 189.851 145.526 193.785 150.605C196.063 155.073 200.672 168.317 200.672 168.317L212.419 195.704" stroke="#806600" stroke-width="0.769226"/>
<path d="M201.834 129.831C201.834 129.831 199.44 137.105 199.704 139.052C200.622 144.41 201.837 146.828 204.207 151.258C205.789 157.963 206.746 166.552 206.746 166.552L211.343 192.578" stroke="#806600" stroke-width="0.769226"/>
<path fill-rule="evenodd" clip-rule="evenodd" d="M212.893 198.23L183.957 174.422C175.364 165.832 171.385 164.219 171.385 164.219C163.931 159.688 161.863 155.743 161.524 154.309C160.127 145.306 165.199 142.412 165.199 142.412C167.195 152.015 172.46 153.6 175.318 154.723C181.704 159.525 189.545 169.621 189.545 169.621C181.163 158.017 178.216 157.782 175.435 154.04C172.442 147.964 174.89 142.239 176.628 138.997C179.353 144.667 184.717 147.596 187.539 150.708C192.055 155.801 195.332 165.419 195.332 165.419L212.893 198.23Z" fill="#FDD502" stroke="#806600" stroke-width="0.769227"/>
<path d="M165.058 142.656C161.884 147.678 166.822 154.326 166.822 154.326C166.822 154.326 171.408 158.641 176.982 161.824C180.792 165.078 190.105 175.546 190.105 175.546L211.412 196.341" stroke="#806600" stroke-width="0.769227"/>
<path d="M176.488 139.543C176.488 139.543 177.053 147.182 178.04 148.88C180.933 153.478 182.979 155.246 186.859 158.429C190.881 164.017 195.044 171.585 195.044 171.585L209.225 193.866" stroke="#806600" stroke-width="0.769227"/>
<path fill-rule="evenodd" clip-rule="evenodd" d="M212.521 198.917L176.701 188.023C165.483 183.384 161.191 183.42 161.191 183.42C152.575 182.094 149.158 179.243 148.298 178.048C143.571 170.266 147.152 165.647 147.152 165.647C152.661 173.753 158.13 173.197 161.2 173.138C168.932 175.125 180.03 181.444 180.03 181.444C167.858 173.939 165.045 174.853 161.047 172.463C155.962 167.997 156.039 161.769 156.407 158.107C161.089 162.3 167.163 162.947 170.958 164.74C177.074 167.713 183.773 175.342 183.773 175.342L212.521 198.917Z" fill="#FDD502" stroke="#806600" stroke-width="0.769226"/>
<path d="M147.115 165.925C146.098 171.783 153.199 176.031 153.199 176.031C153.199 176.031 159.083 178.258 165.448 179.06C170.209 180.605 182.81 186.703 182.81 186.703L210.433 197.741" stroke="#806600" stroke-width="0.769226"/>
<path d="M156.486 158.665C156.486 158.665 159.924 165.506 161.484 166.695C165.912 169.833 168.477 170.682 173.277 172.134C179.126 175.754 185.86 181.149 185.86 181.149L207.467 196.293" stroke="#806600" stroke-width="0.769226"/>
<path fill-rule="evenodd" clip-rule="evenodd" d="M212.057 199.393L174.805 203.071C162.67 203.088 158.719 204.769 158.719 204.769C150.253 206.849 146.008 205.526 144.757 204.752C137.419 199.376 138.964 193.734 138.964 193.734C147.148 199.11 151.989 196.498 154.802 195.266C162.704 194.135 175.37 195.715 175.37 195.715C161.259 193.451 159.01 195.375 154.403 194.7C148.001 192.526 145.695 186.742 144.637 183.218C150.563 185.295 156.421 183.563 160.612 183.763C167.397 184.163 176.499 188.642 176.499 188.642L212.057 199.393Z" fill="#FDD502" stroke="#806600" stroke-width="0.769226"/>
<path d="M139.036 194.006C140.333 199.808 148.515 201.008 148.515 201.008C148.515 201.008 154.801 200.808 160.987 199.108C165.976 198.707 179.945 199.508 179.945 199.508L209.679 199.108" stroke="#806600" stroke-width="0.769226"/>
<path d="M144.923 183.703C144.923 183.703 150.71 188.704 152.606 189.205C157.894 190.405 160.588 190.205 165.577 189.705C172.362 190.805 180.643 193.206 180.643 193.206L206.386 198.908" stroke="#806600" stroke-width="0.769226"/>
<path fill-rule="evenodd" clip-rule="evenodd" d="M211.829 199.937L178.817 217.627C167.612 222.299 164.603 225.367 164.603 225.367C157.575 230.537 153.148 230.943 151.697 230.708C142.866 228.556 142.14 222.751 142.14 222.751C151.753 224.578 155.228 220.308 157.357 218.09C164.226 214.013 176.53 210.614 176.53 210.614C162.63 213.937 161.286 216.576 156.772 217.721C150.027 218.168 145.689 213.709 143.366 210.859C149.635 210.504 154.386 206.657 158.334 205.234C164.755 203.001 174.873 203.646 174.873 203.646L211.829 199.937Z" fill="#FDD502" stroke="#806600" stroke-width="0.769226"/>
<path d="M142.31 222.975C145.723 227.837 153.74 225.807 153.74 225.807C153.74 225.807 159.471 223.211 164.538 219.266C168.994 216.983 182.205 212.363 182.205 212.363L209.523 200.586" stroke="#806600" stroke-width="0.769226"/>
<path d="M143.816 211.197C143.816 211.197 151.072 213.598 153.014 213.333C158.358 212.413 160.771 211.194 165.189 208.818C171.877 207.232 180.445 206.273 180.445 206.273L206.404 201.664" stroke="#806600" stroke-width="0.769226"/>
<path fill-rule="evenodd" clip-rule="evenodd" d="M212.042 200.111L188.295 229.12C179.726 237.734 178.117 241.723 178.117 241.723C173.598 249.196 169.663 251.27 168.232 251.609C159.252 253.01 156.366 247.925 156.366 247.925C165.944 245.925 167.525 240.646 168.646 237.781C173.435 231.379 183.505 223.518 183.505 223.518C171.931 231.92 171.697 234.875 167.964 237.664C161.903 240.664 156.193 238.209 152.959 236.467C158.615 233.735 161.536 228.358 164.64 225.528C169.72 221.002 179.315 217.716 179.315 217.716L212.042 200.111Z" fill="#FDD502" stroke="#806600" stroke-width="0.769227"/>
<path d="M156.608 248.066C161.618 251.249 168.25 246.298 168.25 246.298C168.25 246.298 172.553 241.7 175.728 236.112C178.974 232.293 189.416 222.956 189.416 222.956L210.159 201.595" stroke="#806600" stroke-width="0.769227"/>
<path d="M153.504 236.608C153.504 236.608 161.124 236.042 162.817 235.051C167.403 232.151 169.167 230.1 172.342 226.21C177.916 222.178 185.465 218.005 185.465 218.005L207.689 203.788" stroke="#806600" stroke-width="0.769227"/>
<path fill-rule="evenodd" clip-rule="evenodd" d="M212.728 200.483L201.862 236.394C197.233 247.641 197.27 251.943 197.27 251.943C195.947 260.581 193.103 264.007 191.911 264.869C184.149 269.608 179.542 266.018 179.542 266.018C187.627 260.495 187.073 255.012 187.014 251.935C188.995 244.183 195.298 233.056 195.298 233.056C187.813 245.26 188.724 248.079 186.34 252.088C181.886 257.186 175.673 257.108 172.021 256.739C176.203 252.045 176.849 245.957 178.637 242.152C181.602 236.021 189.212 229.304 189.212 229.304L212.728 200.483Z" fill="#FDD502" stroke="#806600" stroke-width="0.769226"/>
<path d="M179.819 266.055C185.662 267.074 189.9 259.955 189.9 259.955C189.9 259.955 192.121 254.057 192.921 247.676C194.462 242.902 200.545 230.27 200.545 230.27L211.555 202.577" stroke="#806600" stroke-width="0.769226"/>
<path d="M172.577 256.66C172.577 256.66 179.401 253.214 180.588 251.649C183.718 247.211 184.564 244.639 186.012 239.827C189.623 233.963 195.004 227.212 195.004 227.212L210.11 205.55" stroke="#806600" stroke-width="0.769226"/>
<path fill-rule="evenodd" clip-rule="evenodd" d="M213.279 200.646L216.948 237.993C216.965 250.159 218.641 254.12 218.641 254.12C220.716 262.608 219.396 266.864 218.624 268.118C213.262 275.474 207.635 273.925 207.635 273.925C212.997 265.72 210.391 260.867 209.162 258.047C208.034 250.125 209.61 237.427 209.61 237.427C207.352 251.574 209.271 253.829 208.598 258.447C206.429 264.865 200.659 267.177 197.144 268.238C199.217 262.297 197.489 256.424 197.689 252.222C198.088 245.42 202.555 236.296 202.555 236.296L213.279 200.646Z" fill="#FDD502" stroke="#806600" stroke-width="0.769226"/>
<path d="M207.905 273.853C213.693 272.552 214.89 264.35 214.89 264.35C214.89 264.35 214.69 258.048 212.994 251.846C212.595 246.845 213.393 232.84 213.393 232.84L212.994 203.031" stroke="#806600" stroke-width="0.769226"/>
<path d="M197.628 267.951C197.628 267.951 202.617 262.149 203.116 260.249C204.313 254.947 204.114 252.246 203.615 247.245C204.713 240.443 207.107 232.14 207.107 232.14L212.795 206.332" stroke="#806600" stroke-width="0.769226"/>
<path fill-rule="evenodd" clip-rule="evenodd" d="M213.821 200.875L231.467 233.971C236.126 245.205 239.187 248.221 239.187 248.221C244.344 255.267 244.749 259.705 244.514 261.16C242.368 270.014 236.578 270.741 236.578 270.741C238.4 261.104 234.141 257.62 231.929 255.485C227.862 248.599 224.471 236.264 224.471 236.264C227.786 250.2 230.419 251.547 231.56 256.072C232.006 262.834 227.558 267.183 224.716 269.512C224.362 263.228 220.524 258.464 219.105 254.506C216.877 248.069 217.521 237.925 217.521 237.925L213.821 200.875Z" fill="#FDD502" stroke="#806600" stroke-width="0.769226"/>
<path d="M236.801 270.571C241.651 267.149 239.626 259.111 239.626 259.111C239.626 259.111 237.036 253.366 233.102 248.287C230.824 243.819 226.216 230.574 226.216 230.574L214.469 203.188" stroke="#806600" stroke-width="0.769226"/>
<path d="M225.053 269.061C225.053 269.061 227.448 261.787 227.183 259.839C226.266 254.482 225.05 252.063 222.68 247.634C221.098 240.928 220.141 232.339 220.141 232.339L215.544 206.314" stroke="#806600" stroke-width="0.769226"/>
<path fill-rule="evenodd" clip-rule="evenodd" d="M213.995 200.662L242.93 224.469C251.523 233.06 255.502 234.672 255.502 234.672C262.956 239.203 265.024 243.148 265.363 244.583C266.76 253.585 261.688 256.479 261.688 256.479C259.693 246.876 254.428 245.292 251.569 244.168C245.184 239.367 237.343 229.271 237.343 229.271C245.724 240.874 248.671 241.109 251.453 244.851C254.446 250.928 251.997 256.653 250.259 259.894C247.534 254.224 242.17 251.296 239.348 248.184C234.833 243.091 231.555 233.472 231.555 233.472L213.995 200.662Z" fill="#FDD502" stroke="#806600" stroke-width="0.769227"/>
<path d="M261.829 256.236C265.004 251.214 260.065 244.565 260.065 244.565C260.065 244.565 255.479 240.251 249.905 237.068C246.096 233.814 236.782 223.346 236.782 223.346L215.475 202.55" stroke="#806600" stroke-width="0.769227"/>
<path d="M250.399 259.348C250.399 259.348 249.835 251.709 248.847 250.012C245.954 245.414 243.908 243.646 240.028 240.463C236.006 234.875 231.844 227.307 231.844 227.307L217.662 205.026" stroke="#806600" stroke-width="0.769227"/>
<path fill-rule="evenodd" clip-rule="evenodd" d="M214.366 199.974L250.187 210.868C261.405 215.508 265.696 215.471 265.696 215.471C274.312 216.797 277.729 219.649 278.589 220.844C283.316 228.626 279.736 233.245 279.736 233.245C274.226 225.138 268.757 225.694 265.688 225.753C257.955 223.767 246.857 217.448 246.857 217.448C259.03 224.953 261.842 224.039 265.84 226.429C270.925 230.894 270.848 237.123 270.48 240.785C265.798 236.592 259.725 235.944 255.929 234.152C249.814 231.179 243.114 223.55 243.114 223.55L214.366 199.974Z" fill="#FDD502" stroke="#806600" stroke-width="0.769226"/>
<path d="M279.773 232.966C280.789 227.108 273.688 222.86 273.688 222.86C273.688 222.86 267.804 220.634 261.44 219.831C256.678 218.287 244.078 212.188 244.078 212.188L216.455 201.151" stroke="#806600" stroke-width="0.769226"/>
<path d="M270.401 240.227C270.401 240.227 266.964 233.386 265.403 232.196C260.976 229.058 258.41 228.209 253.61 226.758C247.762 223.138 241.027 217.743 241.027 217.743L219.42 202.599" stroke="#806600" stroke-width="0.769226"/>
<path fill-rule="evenodd" clip-rule="evenodd" d="M214.83 199.499L252.082 195.82C264.217 195.803 268.168 194.123 268.168 194.123C276.635 192.042 280.88 193.366 282.131 194.14C289.468 199.516 287.923 205.157 287.923 205.157C279.739 199.781 274.898 202.394 272.085 203.625C264.183 204.757 251.518 203.177 251.518 203.177C265.628 205.44 267.878 203.517 272.484 204.191C278.887 206.366 281.193 212.15 282.251 215.674C276.324 213.597 270.466 215.328 266.276 215.128C259.491 214.728 250.389 210.25 250.389 210.25L214.83 199.499Z" fill="#FDD502" stroke="#806600" stroke-width="0.769226"/>
<path d="M287.851 204.886C286.554 199.084 278.372 197.883 278.372 197.883C278.372 197.883 272.086 198.083 265.9 199.784C260.911 200.184 246.942 199.384 246.942 199.384L217.209 199.784" stroke="#806600" stroke-width="0.769226"/>
<path d="M281.964 215.189C281.964 215.189 276.177 210.187 274.282 209.687C268.993 208.487 266.299 208.687 261.31 209.187C254.526 208.086 246.244 205.686 246.244 205.686L220.501 199.984" stroke="#806600" stroke-width="0.769226"/>
<path fill-rule="evenodd" clip-rule="evenodd" d="M215.058 198.955L248.071 181.265C259.276 176.593 262.284 173.525 262.284 173.525C269.312 168.354 273.739 167.949 275.191 168.184C284.022 170.335 284.748 176.14 284.748 176.14C275.134 174.314 271.659 178.584 269.53 180.801C262.662 184.878 250.357 188.278 250.357 188.278C264.258 184.955 265.602 182.315 270.115 181.171C276.86 180.724 281.199 185.183 283.521 188.033C277.253 188.387 272.502 192.235 268.554 193.658C262.133 195.891 252.014 195.245 252.014 195.245L215.058 198.955Z" fill="#FDD502" stroke="#806600" stroke-width="0.769226"/>
<path d="M284.577 175.917C281.164 171.054 273.147 173.084 273.147 173.084C273.147 173.084 267.416 175.681 262.35 179.625C257.893 181.909 244.682 186.529 244.682 186.529L217.365 198.306" stroke="#806600" stroke-width="0.769226"/>
<path d="M283.071 187.694C283.071 187.694 275.816 185.294 273.873 185.559C268.529 186.479 266.117 187.697 261.699 190.073C255.01 191.66 246.443 192.619 246.443 192.619L220.483 197.227" stroke="#806600" stroke-width="0.769226"/>
<path fill-rule="evenodd" clip-rule="evenodd" d="M214.846 198.781L238.593 169.772C247.161 161.157 248.77 157.168 248.77 157.168C253.289 149.695 257.224 147.622 258.655 147.282C267.635 145.882 270.522 150.966 270.522 150.966C260.943 152.967 259.362 158.246 258.242 161.111C253.453 167.513 243.382 175.374 243.382 175.374C254.956 166.971 255.19 164.017 258.923 161.228C264.984 158.227 270.694 160.682 273.928 162.424C268.272 165.156 265.351 170.534 262.247 173.363C257.167 177.89 247.573 181.176 247.573 181.176L214.846 198.781Z" fill="#FDD502" stroke="#806600" stroke-width="0.769227"/>
<path d="M270.279 150.825C265.27 147.642 258.638 152.594 258.638 152.594C258.638 152.594 254.334 157.191 251.159 162.779C247.914 166.599 237.472 175.935 237.472 175.935L216.729 197.297" stroke="#806600" stroke-width="0.769227"/>
<path d="M273.383 162.284C273.383 162.284 265.764 162.85 264.07 163.84C259.484 166.74 257.72 168.791 254.546 172.682C248.972 176.713 241.423 180.887 241.423 180.887L219.198 195.104" stroke="#806600" stroke-width="0.769227"/>
<path fill-rule="evenodd" clip-rule="evenodd" d="M214.16 198.409L225.026 162.497C229.654 151.251 229.617 146.948 229.617 146.948C230.94 138.31 233.784 134.885 234.976 134.022C242.738 129.283 247.346 132.873 247.346 132.873C239.26 138.397 239.815 143.88 239.873 146.957C237.892 154.709 231.589 165.835 231.589 165.835C239.075 153.632 238.163 150.812 240.547 146.804C245.002 141.706 251.214 141.783 254.867 142.152C250.684 146.846 250.039 152.935 248.251 156.74C245.285 162.871 237.675 169.587 237.675 169.587L214.16 198.409Z" fill="#FDD502" stroke="#806600" stroke-width="0.769226"/>
<path d="M247.068 132.836C241.225 131.817 236.988 138.936 236.988 138.936C236.988 138.936 234.767 144.835 233.966 151.215C232.426 155.989 226.343 168.621 226.343 168.621L215.333 196.315" stroke="#806600" stroke-width="0.769226"/>
<path d="M254.31 142.232C254.31 142.232 247.486 145.678 246.3 147.242C243.17 151.681 242.323 154.253 240.875 159.065C237.265 164.928 231.883 171.68 231.883 171.68L216.777 193.341" stroke="#806600" stroke-width="0.769226"/>
<path d="M250.705 199.446C250.705 220.024 234.022 236.707 213.444 236.707C192.865 236.707 176.183 220.024 176.183 199.446C176.183 178.867 192.865 162.185 213.444 162.185C234.022 162.185 250.705 178.867 250.705 199.446Z" fill="#135ECB" stroke="#AFC6E9" stroke-width="0.769226" stroke-linejoin="round"/>
<path fill-rule="evenodd" clip-rule="evenodd" d="M204.097 234.044L199.512 239.893L204.93 243.375L209.376 244.072L209.654 238.083L208.681 236.968L208.542 235.158L204.097 234.044Z" fill="#135ECB" stroke="#AFC6E9" stroke-width="0.769226"/>
<path d="M198.28 220.631C186.58 212.257 183.884 195.983 192.258 184.283C200.633 172.582 216.907 169.886 228.607 178.26C240.307 186.635 243.003 202.909 234.629 214.609C226.255 226.309 209.981 229.006 198.28 220.631Z" fill="#FDD502" stroke="#806600" stroke-width="0.769226"/>
<path d="M198.211 178.289L212.681 198.394L200.358 176.897L212.788 198.324L202.631 175.723L212.901 198.265L205.008 174.778L213.02 198.218L207.467 174.07L213.142 198.182L209.983 173.606L213.267 198.158L212.532 173.391L213.394 198.147L215.09 173.427L213.522 198.149L217.633 173.714L213.649 198.163L220.135 174.248L213.773 198.189L222.572 175.026L213.895 198.227L224.922 176.038L214.012 198.277L227.161 177.276L214.124 198.339L229.268 178.727L214.229 198.411L231.223 180.378L214.327 198.493L233.006 182.212L214.416 198.584L234.601 184.213L214.496 198.683L235.992 186.36L214.566 198.79L237.166 188.633L214.625 198.903L238.112 191.01L214.672 199.022L238.82 193.469L214.708 199.144L239.284 195.985L214.731 199.269L239.498 198.534L214.742 199.396L239.462 201.092L214.741 199.524L239.176 203.635L214.727 199.651L238.641 206.137L214.701 199.776L237.864 208.574L214.662 199.897L236.852 210.924L214.612 200.014L235.614 213.163L214.551 200.126L234.163 215.27L214.479 200.231L232.512 217.225L214.397 200.329L230.677 219.008L214.306 200.418L228.677 220.603L214.206 200.498L226.53 221.994L214.099 200.568L224.257 223.168L213.986 200.627L221.879 224.114L213.868 200.674L219.421 224.822L213.745 200.71L216.905 225.286L213.62 200.733L214.355 225.5L213.493 200.744L211.797 225.464L213.366 200.743L209.255 225.178L213.239 200.729L206.753 224.643L213.114 200.703L204.315 223.866L212.992 200.664L201.966 222.854L212.875 200.614L199.726 221.616L212.763 200.553L197.619 220.165L212.658 200.481L195.665 218.514L212.56 200.399L193.881 216.679L212.471 200.308L192.286 214.679L212.391 200.208L190.895 212.532L212.322 200.101L189.721 210.259L212.263 199.988L188.776 207.881L212.215 199.87L188.067 205.423L212.18 199.747L187.604 202.907L212.156 199.622L187.389 200.357L212.145 199.495L187.425 197.799L212.147 199.368L187.712 195.257L212.161 199.241L188.246 192.755L212.187 199.116L189.023 190.317L212.225 198.994L190.036 187.968L212.275 198.877L191.274 185.729L212.337 198.765L192.725 183.622L212.409 198.66L194.376 181.667L212.491 198.562L196.21 179.884L212.582 198.473L198.211 178.289Z" fill="#FDD502" stroke="#806600" stroke-width="0.769226" stroke-linejoin="round"/>
<path d="M201.054 228.454C201.054 229.476 200.228 230.304 199.208 230.304C198.189 230.304 197.363 229.476 197.363 228.454C197.363 227.432 198.189 226.603 199.208 226.603C200.228 226.603 201.054 227.432 201.054 228.454Z" fill="#ECECEC" stroke="#808080" stroke-width="0.769226" stroke-linejoin="round"/>
<path d="M229.555 228.454C229.555 229.476 228.729 230.304 227.71 230.304C226.69 230.304 225.864 229.476 225.864 228.454C225.864 227.432 226.69 226.603 227.71 226.603C228.729 226.603 229.555 227.432 229.555 228.454Z" fill="#ECECEC" stroke="#808080" stroke-width="0.769226" stroke-linejoin="round"/>
<path fill-rule="evenodd" clip-rule="evenodd" d="M207.731 225.75L206.552 230.084L208.909 237.372L213.821 237.765L212.446 235.205L213.625 237.569L217.947 237.372L218.929 231.856L220.305 230.281L219.519 226.538L211.66 225.553L207.731 225.75Z" fill="#135ECB" stroke="#AFC6E9" stroke-width="0.769226"/>
<path fill-rule="evenodd" clip-rule="evenodd" d="M220.305 230.784L225.09 236.95L227.862 239.362L225.118 236.814L231.219 237.487L229.948 243.765L226.017 246.377L221.743 245.081L218.237 236.425L218.854 232.908L220.305 230.784Z" fill="#135ECB" stroke="#AFC6E9" stroke-width="0.769226"/>
<path d="M212.923 163.735L212.911 163.998C213.073 164.058 213.182 164.106 213.247 164.149C213.312 164.192 213.36 164.245 213.396 164.312C213.433 164.378 213.461 164.472 213.471 164.587C213.481 164.703 213.477 164.889 213.459 165.139L213.11 169.826C213.09 170.094 213.068 170.287 213.036 170.415C213.003 170.544 212.942 170.638 212.861 170.703C212.781 170.768 212.628 170.825 212.401 170.866L212.376 171.129L214.641 171.305L214.666 171.042C214.504 170.986 214.388 170.928 214.317 170.879C214.247 170.83 214.201 170.771 214.168 170.703C214.135 170.635 214.114 170.553 214.106 170.44C214.098 170.327 214.1 170.144 214.118 169.901L214.28 167.633L217.279 167.858L217.117 170.127C217.095 170.427 217.057 170.642 217.017 170.766C216.977 170.89 216.914 170.974 216.831 171.029C216.747 171.085 216.609 171.131 216.408 171.167L216.383 171.43L218.647 171.606L218.66 171.343C218.522 171.296 218.425 171.255 218.361 171.217C218.297 171.18 218.245 171.134 218.212 171.092C218.179 171.049 218.158 170.994 218.137 170.929C218.117 170.864 218.103 170.784 218.1 170.678C218.097 170.573 218.097 170.412 218.112 170.202L218.461 165.502C218.483 165.206 218.522 165 218.56 164.876C218.598 164.751 218.651 164.657 218.734 164.6C218.818 164.543 218.965 164.498 219.17 164.462L219.195 164.199L216.93 164.036L216.918 164.299C217.125 164.373 217.261 164.445 217.328 164.512C217.396 164.579 217.443 164.67 217.465 164.788C217.487 164.906 217.476 165.112 217.453 165.427L217.316 167.357L214.317 167.132L214.466 165.214C214.485 164.965 214.5 164.78 214.529 164.663C214.557 164.545 214.595 164.456 214.641 164.399C214.686 164.343 214.754 164.296 214.827 164.262C214.9 164.227 215.015 164.189 215.176 164.161L215.188 163.898L212.923 163.735ZM208.344 164.186C208.033 164.206 207.716 164.25 207.386 164.312C206.76 164.429 206.25 164.681 205.843 165.076C205.436 165.471 205.152 165.972 205.01 166.593C204.867 167.213 204.87 167.914 205.01 168.673C205.234 169.893 205.637 170.758 206.204 171.292C206.771 171.826 207.499 172.011 208.394 171.844C208.72 171.783 209.001 171.695 209.24 171.581C209.479 171.466 209.696 171.315 209.9 171.129L210.373 171.48L210.758 171.292L210.422 169.438C210.382 169.216 210.357 169.045 210.348 168.924C210.338 168.802 210.342 168.686 210.36 168.598C210.379 168.51 210.419 168.439 210.472 168.372C210.526 168.305 210.601 168.238 210.721 168.172L210.684 167.909L208.531 168.31L208.581 168.573C208.785 168.586 208.942 168.623 209.041 168.686C209.141 168.748 209.218 168.85 209.278 168.986C209.338 169.123 209.393 169.342 209.452 169.663L209.514 169.989C209.584 170.371 209.533 170.67 209.365 170.891C209.197 171.113 208.899 171.264 208.481 171.343C208.088 171.416 207.739 171.356 207.424 171.155C207.108 170.953 206.842 170.61 206.615 170.139C206.387 169.669 206.208 169.096 206.08 168.397C205.953 167.709 205.921 167.097 205.993 166.58C206.064 166.063 206.221 165.656 206.465 165.352C206.71 165.048 207.025 164.86 207.411 164.788C207.691 164.736 207.924 164.733 208.12 164.775C208.317 164.818 208.504 164.921 208.668 165.076C208.832 165.232 208.986 165.462 209.141 165.765L209.676 165.665L209.402 164.186C209.013 164.163 208.656 164.167 208.344 164.186ZM222.069 164.813L221.459 166.605L221.957 166.781C222.115 166.529 222.271 166.334 222.405 166.179C222.54 166.024 222.669 165.908 222.791 165.841C222.913 165.774 223.025 165.748 223.139 165.753C223.254 165.758 223.39 165.785 223.55 165.841L224.197 166.066L222.405 171.33C222.335 171.536 222.261 171.694 222.206 171.794C222.151 171.894 222.098 171.969 222.044 172.019C221.991 172.07 221.933 172.097 221.87 172.12C221.807 172.142 221.734 172.157 221.646 172.157C221.558 172.157 221.458 172.156 221.347 172.145L221.273 172.395L223.6 173.197L223.687 172.947C223.533 172.851 223.428 172.775 223.363 172.709C223.298 172.642 223.248 172.557 223.226 172.47C223.204 172.384 223.208 172.285 223.226 172.157C223.245 172.029 223.282 171.858 223.351 171.656L225.155 166.392L225.802 166.618C225.989 166.682 226.12 166.748 226.2 166.818C226.281 166.888 226.348 166.977 226.399 167.094C226.451 167.211 226.484 167.373 226.499 167.57C226.514 167.767 226.512 168.026 226.487 168.347L226.984 168.523L227.594 166.73L222.069 164.813ZM201.799 165.841L199.672 166.668L199.771 166.918C199.942 166.902 200.067 166.895 200.144 166.906C200.222 166.917 200.295 166.95 200.356 166.994C200.417 167.038 200.472 167.107 200.53 167.207C200.588 167.307 200.664 167.475 200.754 167.708L202.434 172.094C202.53 172.345 202.596 172.541 202.621 172.671C202.645 172.801 202.628 172.916 202.583 173.009C202.538 173.103 202.422 173.213 202.235 173.348L202.334 173.598L204.462 172.771L204.363 172.521C204.193 172.54 204.061 172.547 203.977 172.533C203.892 172.519 203.824 172.48 203.765 172.433C203.707 172.386 203.646 172.319 203.591 172.22C203.536 172.121 203.467 171.958 203.38 171.731L201.7 167.345C201.61 167.111 201.55 166.937 201.526 166.818C201.501 166.699 201.496 166.601 201.513 166.53C201.53 166.459 201.561 166.392 201.613 166.329C201.664 166.267 201.765 166.186 201.899 166.091L201.799 165.841ZM195.292 168.949L193.338 170.127L193.475 170.352C193.641 170.307 193.77 170.28 193.848 170.277C193.926 170.274 193.992 170.294 194.06 170.327C194.128 170.36 194.197 170.414 194.271 170.503C194.345 170.591 194.454 170.752 194.582 170.967L196.984 174.99C197.121 175.22 197.211 175.404 197.258 175.528C197.304 175.653 197.311 175.767 197.282 175.867C197.254 175.967 197.158 176.09 196.996 176.255L197.133 176.493L201.302 173.974L200.269 172.044L199.808 172.32C199.915 172.64 199.99 172.88 200.032 173.047C200.075 173.214 200.098 173.364 200.107 173.486C200.116 173.607 200.111 173.711 200.095 173.799C200.078 173.887 200.051 173.966 200.007 174.037C199.964 174.108 199.901 174.18 199.821 174.25C199.741 174.32 199.63 174.395 199.497 174.476L198.29 175.203L195.441 170.44C195.307 170.216 195.222 170.04 195.18 169.926C195.137 169.813 195.122 169.723 195.13 169.651C195.137 169.578 195.152 169.514 195.192 169.45C195.231 169.386 195.315 169.294 195.428 169.174L195.292 168.949ZM233.716 170.766C233.172 170.721 232.622 170.851 232.074 171.155C231.525 171.458 231.002 171.922 230.506 172.558C230.103 173.074 229.815 173.568 229.635 174.025C229.454 174.481 229.372 174.907 229.386 175.303C229.4 175.699 229.494 176.06 229.684 176.393C229.875 176.727 230.141 177.027 230.481 177.296C230.962 177.677 231.472 177.902 232.011 177.96C232.55 178.017 233.097 177.886 233.654 177.584C234.21 177.282 234.751 176.797 235.271 176.13C235.759 175.506 236.089 174.91 236.254 174.338C236.42 173.765 236.411 173.23 236.242 172.734C236.073 172.238 235.738 171.792 235.234 171.393C234.761 171.018 234.26 170.811 233.716 170.766ZM234.114 171.405C234.39 171.43 234.656 171.542 234.911 171.744C235.199 171.972 235.385 172.263 235.458 172.621C235.531 172.979 235.465 173.415 235.271 173.924C235.078 174.433 234.749 174.995 234.264 175.616C233.865 176.127 233.462 176.535 233.057 176.832C232.651 177.129 232.257 177.293 231.887 177.321C231.517 177.348 231.175 177.239 230.867 176.995C230.38 176.609 230.191 176.085 230.294 175.428C230.397 174.771 230.793 174.01 231.476 173.135C231.777 172.75 232.072 172.427 232.372 172.157C232.672 171.887 232.975 171.681 233.268 171.556C233.561 171.43 233.838 171.38 234.114 171.405ZM188.883 174.062C188.545 174.287 188.283 174.488 188.087 174.664C187.891 174.839 187.698 175.023 187.515 175.228C187.198 175.58 186.98 175.948 186.855 176.331C186.73 176.713 186.712 177.079 186.805 177.421C186.899 177.763 187.091 178.063 187.39 178.336C187.596 178.523 187.832 178.656 188.087 178.724C188.341 178.792 188.621 178.797 188.933 178.749C189.245 178.701 189.628 178.597 190.065 178.424C190.518 178.244 190.873 178.122 191.135 178.073C191.398 178.023 191.621 178.031 191.82 178.085C192.019 178.139 192.217 178.254 192.417 178.436C192.73 178.721 192.903 179.022 192.915 179.338C192.927 179.655 192.787 179.976 192.504 180.291C192.299 180.52 192.103 180.669 191.907 180.755C191.711 180.84 191.503 180.875 191.285 180.842C191.066 180.81 190.809 180.714 190.526 180.554L190.165 180.955L191.26 181.945C191.896 181.523 192.411 181.102 192.79 180.679C193.025 180.418 193.208 180.159 193.35 179.89C193.492 179.621 193.58 179.356 193.599 179.088C193.619 178.82 193.564 178.551 193.45 178.286C193.336 178.021 193.146 177.751 192.865 177.496C192.614 177.268 192.34 177.123 192.056 177.057C191.773 176.992 191.477 176.989 191.16 177.045C190.843 177.101 190.446 177.232 189.966 177.421C189.571 177.58 189.25 177.679 189.008 177.722C188.765 177.765 188.553 177.76 188.361 177.709C188.168 177.659 187.966 177.543 187.776 177.371C187.597 177.208 187.485 177.031 187.427 176.832C187.37 176.633 187.367 176.427 187.427 176.23C187.488 176.033 187.606 175.854 187.763 175.679C187.944 175.477 188.108 175.332 188.274 175.253C188.439 175.174 188.631 175.153 188.846 175.178C189.061 175.203 189.314 175.289 189.605 175.441L189.966 175.04L188.883 174.062ZM239.664 175.491L239.452 175.654C239.521 175.824 239.558 175.94 239.564 176.017C239.57 176.094 239.565 176.168 239.539 176.23C239.514 176.293 239.458 176.369 239.39 176.443C239.322 176.518 239.179 176.637 238.955 176.807L236.118 178.962C235.746 179.244 235.47 179.51 235.284 179.765C235.098 180.019 234.978 180.294 234.923 180.592C234.868 180.889 234.888 181.185 234.998 181.494C235.107 181.804 235.296 182.133 235.558 182.484C235.774 182.774 235.996 183.005 236.217 183.173C236.438 183.342 236.647 183.466 236.864 183.537C237.082 183.608 237.311 183.637 237.536 183.625C237.785 183.608 238.038 183.545 238.295 183.437C238.566 183.322 238.853 183.148 239.166 182.91L241.941 180.805C242.177 180.626 242.361 180.517 242.476 180.466C242.591 180.415 242.689 180.393 242.787 180.416C242.885 180.439 243.029 180.519 243.198 180.654L243.409 180.504L242.103 178.762L241.891 178.925C241.977 179.136 242.022 179.295 242.016 179.389C242.009 179.482 241.965 179.57 241.891 179.664C241.817 179.759 241.656 179.901 241.406 180.09L238.706 182.133C238.352 182.401 238.06 182.601 237.822 182.722C237.584 182.844 237.359 182.904 237.138 182.91C236.917 182.916 236.713 182.873 236.528 182.772C236.343 182.672 236.17 182.524 236.018 182.321C235.853 182.101 235.745 181.891 235.682 181.707C235.619 181.523 235.595 181.342 235.62 181.156C235.645 180.969 235.736 180.77 235.881 180.567C236.027 180.363 236.237 180.151 236.516 179.94L239.577 177.634C239.813 177.455 239.981 177.336 240.099 177.283C240.217 177.23 240.325 177.22 240.423 177.245C240.521 177.271 240.66 177.352 240.821 177.484L241.033 177.321L239.664 175.491ZM184.292 178.85L183.645 179.802L185.884 181.093L186.208 180.617L184.292 178.85ZM182.413 182.321L181.641 184.113L181.89 184.214C181.999 184.079 182.078 183.997 182.139 183.95C182.2 183.904 182.267 183.873 182.338 183.863C182.409 183.852 182.5 183.868 182.612 183.9C182.723 183.933 182.894 183.989 183.122 184.088L184.167 184.552C184.65 184.762 185.192 184.981 185.797 185.229C186.403 185.477 186.808 185.646 187.017 185.718L186.992 185.78C186.77 185.786 186.566 185.801 186.382 185.818C186.198 185.835 185.985 185.859 185.735 185.893L180.584 186.57L179.912 188.136L180.161 188.249C180.269 188.115 180.36 188.022 180.422 187.973C180.484 187.925 180.547 187.886 180.621 187.873C180.695 187.86 180.784 187.87 180.895 187.898C181.006 187.927 181.177 187.999 181.405 188.099L185.698 189.966C185.942 190.073 186.111 190.156 186.22 190.229C186.33 190.303 186.41 190.395 186.444 190.492C186.479 190.59 186.48 190.752 186.444 190.981L186.681 191.082L187.465 189.264L187.228 189.151C187.123 189.287 187.036 189.389 186.967 189.44C186.898 189.491 186.818 189.518 186.743 189.527C186.669 189.537 186.578 189.52 186.469 189.49C186.36 189.46 186.193 189.398 185.972 189.302L184.964 188.863C184.303 188.575 183.643 188.291 182.973 188.011C182.303 187.731 181.831 187.547 181.567 187.46L181.604 187.384C181.76 187.377 181.913 187.362 182.077 187.347C182.24 187.331 182.511 187.294 182.873 187.247L188.697 186.482L188.958 185.855L183.408 183.437C183.167 183.332 182.995 183.252 182.898 183.186C182.801 183.12 182.735 183.059 182.699 182.998C182.663 182.937 182.643 182.861 182.637 182.785C182.63 182.709 182.637 182.589 182.662 182.421L182.413 182.321ZM244.853 183.161L244.616 183.261C244.636 183.433 244.638 183.559 244.629 183.637C244.62 183.715 244.596 183.787 244.554 183.85C244.512 183.913 244.44 183.965 244.342 184.026C244.244 184.086 244.074 184.168 243.845 184.264L239.527 186.056C239.281 186.158 239.096 186.228 238.967 186.256C238.838 186.284 238.725 186.275 238.631 186.231C238.537 186.188 238.421 186.079 238.283 185.893L238.046 185.993L238.905 188.111L239.154 188.011C239.134 187.839 239.132 187.713 239.141 187.635C239.15 187.557 239.176 187.482 239.216 187.422C239.256 187.362 239.327 187.31 239.427 187.247C239.528 187.183 239.698 187.095 239.938 186.996L241.63 186.294L241.854 186.846C241.921 187.01 241.963 187.132 241.978 187.221C241.994 187.311 241.997 187.405 241.978 187.497C241.96 187.589 241.901 187.7 241.817 187.836C241.732 187.971 241.592 188.16 241.393 188.4L240.746 189.189C240.582 189.387 240.417 189.592 240.261 189.791C240.105 189.989 239.962 190.179 239.838 190.38L240.41 191.771L240.659 191.671C240.62 191.499 240.608 191.357 240.634 191.232C240.661 191.107 240.721 190.965 240.809 190.818C240.897 190.672 241.033 190.485 241.219 190.254L241.854 189.465C242.107 189.152 242.281 188.885 242.376 188.675C242.472 188.465 242.514 188.25 242.513 188.011L242.563 187.986C242.95 188.418 243.347 188.693 243.77 188.813C244.193 188.934 244.633 188.902 245.089 188.713C245.685 188.465 246.048 188.091 246.172 187.585C246.295 187.079 246.194 186.427 245.873 185.642L244.853 183.161ZM245.027 184.878C245.117 185.06 245.227 185.303 245.35 185.605C245.504 185.98 245.569 186.303 245.549 186.57C245.53 186.837 245.441 187.076 245.276 187.272C245.111 187.468 244.87 187.629 244.554 187.76C244.251 187.886 243.966 187.942 243.72 187.936C243.475 187.93 243.265 187.879 243.086 187.773C242.906 187.667 242.766 187.536 242.65 187.372C242.534 187.208 242.409 186.974 242.289 186.683L242.065 186.119L245.027 184.878ZM179.103 191.232L178.319 196.258L178.58 196.308C178.652 196.15 178.719 196.031 178.767 195.969C178.815 195.907 178.873 195.863 178.941 195.831C179.01 195.8 179.1 195.781 179.215 195.781C179.33 195.781 179.505 195.805 179.75 195.844L184.366 196.571C184.63 196.613 184.827 196.665 184.951 196.709C185.076 196.752 185.167 196.811 185.225 196.897C185.283 196.983 185.315 197.142 185.337 197.373L185.598 197.411L186.382 192.435L184.528 192.047L184.441 192.573C184.672 192.683 184.844 192.762 184.964 192.824C185.084 192.885 185.204 192.957 185.312 193.037C185.42 193.116 185.5 193.209 185.561 193.3C185.622 193.39 185.66 193.487 185.673 193.601C185.686 193.715 185.675 193.864 185.648 194.039L185.387 195.706L182.313 195.217L182.487 194.064C182.514 193.896 182.565 193.778 182.624 193.701C182.684 193.624 182.768 193.569 182.886 193.525C183.004 193.482 183.175 193.441 183.396 193.425L183.471 192.924L181.43 192.598L181.343 193.112C181.562 193.202 181.718 193.274 181.816 193.35C181.913 193.426 181.984 193.517 182.015 193.613C182.045 193.71 182.052 193.832 182.027 193.989L181.84 195.142L179.041 194.704L179.314 192.999C179.336 192.859 179.366 192.745 179.402 192.648C179.437 192.551 179.486 192.475 179.551 192.41C179.616 192.345 179.689 192.281 179.787 192.235C179.886 192.188 180.008 192.146 180.148 192.109C180.289 192.073 180.451 192.048 180.633 192.021L180.721 191.495L179.103 191.232ZM244.629 194.653C243.399 194.727 242.487 195.018 241.891 195.518C241.295 196.019 241.016 196.72 241.07 197.636C241.09 197.969 241.148 198.273 241.232 198.526C241.315 198.779 241.435 199.014 241.593 199.24L241.194 199.666L241.331 200.08L243.198 199.967C243.421 199.954 243.599 199.949 243.72 199.955C243.841 199.96 243.934 199.975 244.019 200.005C244.104 200.034 244.183 200.081 244.243 200.143C244.302 200.205 244.354 200.303 244.405 200.431L244.666 200.418L244.542 198.225L244.28 198.238C244.242 198.44 244.18 198.585 244.106 198.676C244.032 198.768 243.924 198.834 243.783 198.877C243.641 198.92 243.409 198.945 243.086 198.965L242.762 198.99C242.378 199.013 242.088 198.922 241.891 198.727C241.694 198.531 241.58 198.226 241.555 197.799C241.532 197.397 241.642 197.049 241.879 196.759C242.116 196.469 242.482 196.239 242.974 196.07C243.465 195.9 244.061 195.798 244.766 195.756C245.459 195.715 246.057 195.759 246.557 195.894C247.058 196.03 247.446 196.239 247.715 196.521C247.984 196.803 248.127 197.141 248.15 197.536C248.167 197.822 248.142 198.059 248.075 198.25C248.009 198.441 247.888 198.607 247.715 198.752C247.541 198.896 247.298 199.036 246.98 199.153L247.005 199.679L248.486 199.591C248.557 199.206 248.603 198.865 248.623 198.551C248.642 198.237 248.643 197.91 248.623 197.574C248.585 196.933 248.402 196.387 248.063 195.932C247.724 195.476 247.25 195.135 246.657 194.917C246.063 194.698 245.394 194.608 244.629 194.653ZM178.394 198.651L178.132 198.676L178.319 200.945L178.58 200.932C178.598 200.691 178.651 200.513 178.742 200.406C178.833 200.299 178.987 200.235 179.202 200.218C179.249 200.214 179.298 200.217 179.352 200.218C179.406 200.219 179.465 200.22 179.538 200.23C179.612 200.241 179.685 200.252 179.762 200.268C179.84 200.284 179.917 200.302 179.986 200.318L184.528 201.521L180.235 203.138C180.064 203.206 179.914 203.261 179.775 203.301C179.635 203.341 179.499 203.366 179.377 203.376C179.244 203.387 179.136 203.376 179.053 203.339C178.971 203.301 178.904 203.246 178.854 203.163C178.804 203.08 178.759 202.951 178.717 202.787L178.456 202.812L178.655 205.256L178.916 205.244C178.94 205.089 178.978 204.96 179.041 204.868C179.104 204.775 179.207 204.688 179.339 204.604C179.472 204.521 179.692 204.415 180.011 204.291L185.872 201.998L185.822 201.283L179.675 199.504C179.335 199.403 179.086 199.317 178.929 199.24C178.771 199.164 178.656 199.087 178.58 199.002C178.505 198.917 178.441 198.797 178.394 198.651ZM242.439 202.536C242.126 202.568 241.849 202.666 241.593 202.825C241.336 202.983 241.125 203.212 240.97 203.501C240.816 203.791 240.705 204.149 240.622 204.579C240.553 204.935 240.524 205.254 240.547 205.532C240.571 205.81 240.628 206.048 240.722 206.259C240.815 206.469 240.947 206.65 241.107 206.81C241.286 206.985 241.502 207.142 241.754 207.261C242.02 207.387 242.34 207.487 242.725 207.562L246.134 208.226C246.424 208.283 246.629 208.337 246.744 208.389C246.859 208.441 246.944 208.513 246.993 208.602C247.042 208.691 247.067 208.837 247.08 209.053L247.341 209.116L247.752 206.986L247.491 206.923C247.392 207.129 247.303 207.266 247.229 207.324C247.156 207.382 247.062 207.416 246.943 207.424C246.824 207.432 246.616 207.409 246.308 207.349L242.999 206.697C242.564 206.612 242.215 206.518 241.966 206.422C241.717 206.325 241.521 206.194 241.369 206.033C241.216 205.872 241.108 205.7 241.057 205.494C241.007 205.289 241.009 205.054 241.057 204.805C241.11 204.534 241.188 204.311 241.281 204.141C241.375 203.97 241.488 203.834 241.642 203.727C241.797 203.621 242.005 203.554 242.252 203.527C242.499 203.499 242.793 203.522 243.135 203.589L246.893 204.329C247.183 204.385 247.385 204.439 247.503 204.492C247.621 204.544 247.705 204.614 247.752 204.705C247.799 204.795 247.828 204.947 247.839 205.156L248.1 205.206L248.523 202.963L248.262 202.912C248.183 203.078 248.116 203.182 248.063 203.238C248.01 203.294 247.952 203.341 247.889 203.364C247.826 203.386 247.753 203.39 247.652 203.389C247.552 203.387 247.356 203.367 247.08 203.313L243.596 202.624C243.14 202.535 242.751 202.505 242.439 202.536ZM186.034 204.93L185.785 205.018C185.799 205.185 185.784 205.328 185.735 205.444C185.686 205.56 185.593 205.672 185.474 205.782C185.355 205.893 185.178 206.037 184.939 206.209L179.812 209.881L180.074 210.695L186.457 210.946C186.857 210.961 187.176 211.005 187.415 211.084C187.654 211.162 187.818 211.29 187.913 211.472L188.174 211.385L187.44 209.179L187.191 209.267C187.232 209.494 187.215 209.681 187.154 209.818C187.093 209.955 186.96 210.05 186.756 210.119C186.65 210.154 186.534 210.19 186.395 210.206C186.256 210.222 186.042 210.224 185.76 210.219L185.2 210.206L184.404 207.8L185.001 207.387C185.151 207.279 185.298 207.196 185.424 207.123C185.55 207.051 185.669 207 185.785 206.961C185.908 206.919 186.009 206.906 186.096 206.923C186.183 206.94 186.264 206.978 186.332 207.048C186.401 207.119 186.478 207.239 186.569 207.399L186.818 207.311L186.034 204.93ZM183.993 208.063L184.715 210.219L181.019 210.156L183.993 208.063ZM239.602 208.728L238.743 210.858L238.979 210.958C239.082 210.82 239.173 210.723 239.241 210.67C239.309 210.618 239.378 210.593 239.452 210.582C239.527 210.572 239.617 210.58 239.726 210.608C239.836 210.635 240 210.691 240.224 210.783L244.554 212.55C244.784 212.644 244.949 212.725 245.052 212.788C245.154 212.852 245.224 212.915 245.263 212.976C245.303 213.037 245.328 213.109 245.338 213.189C245.348 213.27 245.349 213.39 245.326 213.553L245.562 213.653L246.421 211.535L246.184 211.435C246.078 211.571 245.996 211.661 245.935 211.71C245.874 211.76 245.798 211.796 245.724 211.811C245.65 211.825 245.562 211.812 245.45 211.786C245.338 211.759 245.17 211.705 244.94 211.61L240.61 209.831C240.363 209.729 240.186 209.651 240.074 209.58C239.963 209.509 239.887 209.414 239.851 209.317C239.814 209.219 239.807 209.058 239.838 208.828L239.602 208.728ZM188.597 212.049L186.942 212.976L187.228 213.427C187.474 213.358 187.658 213.31 187.788 213.277C187.919 213.244 188.053 213.226 188.186 213.214C188.32 213.203 188.443 213.212 188.547 213.239C188.652 213.267 188.737 213.313 188.821 213.39C188.905 213.467 189.001 213.59 189.095 213.741L189.991 215.169L187.353 216.836L186.731 215.846C186.641 215.702 186.599 215.58 186.594 215.483C186.588 215.386 186.608 215.293 186.668 215.182C186.729 215.071 186.836 214.927 186.992 214.768L186.731 214.342L184.976 215.445L185.237 215.884C185.461 215.806 185.637 215.766 185.76 215.758C185.883 215.751 185.985 215.768 186.071 215.821C186.157 215.874 186.248 215.974 186.332 216.109L186.942 217.087L184.553 218.603L183.645 217.15C183.57 217.03 183.507 216.92 183.471 216.824C183.434 216.727 183.427 216.64 183.433 216.548C183.44 216.456 183.464 216.36 183.508 216.26C183.552 216.159 183.612 216.042 183.695 215.921C183.777 215.801 183.872 215.673 183.993 215.533L183.719 215.082L182.338 215.959L185.013 220.258L185.237 220.12C185.189 219.954 185.167 219.835 185.163 219.756C185.158 219.678 185.169 219.6 185.2 219.531C185.231 219.462 185.288 219.394 185.374 219.318C185.461 219.242 185.612 219.138 185.822 219.004L189.779 216.498C190.005 216.355 190.18 216.259 190.302 216.21C190.424 216.16 190.538 216.145 190.638 216.172C190.737 216.199 190.868 216.301 191.036 216.46L191.26 216.31L188.597 212.049ZM238.283 212.111L237.213 213.753C236.882 214.259 236.64 214.679 236.491 215.019C236.342 215.359 236.249 215.696 236.217 216.009C236.18 216.389 236.215 216.742 236.317 217.087C236.432 217.485 236.641 217.88 236.951 218.253C237.261 218.625 237.675 218.981 238.183 219.318C238.685 219.651 239.158 219.866 239.602 219.982C240.045 220.098 240.475 220.122 240.883 220.032C241.291 219.942 241.677 219.75 242.04 219.468C242.404 219.186 242.774 218.762 243.148 218.19L244.442 216.197L244.218 216.047C244.086 216.163 243.989 216.248 243.919 216.285C243.85 216.321 243.782 216.334 243.708 216.335C243.634 216.336 243.539 216.307 243.434 216.26C243.33 216.212 243.172 216.124 242.961 215.984L239.067 213.39C238.859 213.252 238.705 213.155 238.619 213.076C238.532 212.997 238.474 212.918 238.444 212.851C238.415 212.784 238.413 212.708 238.42 212.625C238.426 212.543 238.452 212.425 238.507 212.262L238.283 212.111ZM237.797 213.778L243.123 217.313C243.014 217.505 242.897 217.708 242.762 217.914C242.469 218.362 242.121 218.676 241.729 218.879C241.338 219.082 240.894 219.15 240.386 219.067C239.877 218.984 239.316 218.733 238.706 218.328C238.402 218.126 238.14 217.921 237.909 217.714C237.679 217.506 237.48 217.295 237.325 217.074C237.169 216.854 237.052 216.622 236.976 216.385C236.9 216.148 236.872 215.919 236.889 215.696C236.906 215.472 236.962 215.247 237.051 215.019C237.139 214.791 237.27 214.559 237.437 214.305C237.591 214.068 237.706 213.891 237.797 213.778ZM192.056 217.413L191.882 217.601C191.959 217.724 192.005 217.819 192.031 217.889C192.058 217.959 192.07 218.023 192.069 218.077C192.068 218.131 192.056 218.189 192.031 218.253C192.006 218.316 191.958 218.394 191.895 218.478C191.831 218.562 191.727 218.676 191.583 218.829L188.386 222.25C188.183 222.467 188.02 222.617 187.913 222.689C187.805 222.761 187.702 222.785 187.602 222.777C187.501 222.768 187.36 222.716 187.179 222.614L186.992 222.802L188.647 224.368L188.821 224.18C188.706 223.991 188.645 223.849 188.634 223.754C188.624 223.66 188.652 223.559 188.709 223.454C188.766 223.348 188.905 223.182 189.12 222.952L190.426 221.549L192.604 223.629L191.297 225.033C191.127 225.215 190.995 225.335 190.899 225.409C190.803 225.482 190.721 225.532 190.65 225.547C190.579 225.561 190.504 225.554 190.426 225.534C190.348 225.514 190.233 225.464 190.09 225.384L189.904 225.584L191.559 227.151L191.745 226.963C191.657 226.814 191.595 226.699 191.571 226.624C191.547 226.549 191.545 226.474 191.559 226.399C191.572 226.324 191.606 226.244 191.671 226.148C191.735 226.053 191.861 225.904 192.031 225.722L195.242 222.313C195.425 222.118 195.571 221.978 195.677 221.9C195.783 221.821 195.885 221.786 195.988 221.787C196.092 221.788 196.247 221.837 196.449 221.95L196.623 221.762L194.968 220.183L194.794 220.383C194.884 220.529 194.944 220.639 194.968 220.721C194.992 220.804 194.985 220.886 194.968 220.96C194.951 221.033 194.921 221.117 194.856 221.21C194.791 221.303 194.673 221.435 194.508 221.611L192.952 223.266L190.762 221.185L192.318 219.531C192.523 219.312 192.682 219.163 192.79 219.092C192.899 219.021 193.002 218.995 193.102 219.004C193.201 219.014 193.346 219.067 193.525 219.167L193.711 218.979L192.056 217.413ZM234.064 218.165L230.381 221.574L231.588 223.04L231.986 222.677C231.874 222.446 231.794 222.273 231.738 222.15C231.682 222.027 231.636 221.904 231.601 221.774C231.565 221.644 231.542 221.519 231.551 221.411C231.559 221.302 231.603 221.207 231.663 221.11C231.723 221.012 231.819 220.892 231.949 220.772L233.181 219.631L235.284 221.95L234.438 222.727C234.313 222.842 234.208 222.917 234.114 222.94C234.02 222.963 233.91 222.954 233.791 222.915C233.671 222.875 233.514 222.79 233.33 222.664L232.957 223.015L234.363 224.544L234.736 224.206C234.62 223.998 234.554 223.837 234.525 223.717C234.496 223.596 234.489 223.486 234.525 223.391C234.561 223.296 234.645 223.198 234.761 223.09L235.607 222.301L237.524 224.394L236.267 225.559C236.163 225.655 236.068 225.731 235.981 225.785C235.893 225.839 235.81 225.875 235.719 225.885C235.628 225.895 235.527 225.885 235.421 225.86C235.315 225.835 235.192 225.794 235.06 225.735C234.927 225.675 234.783 225.59 234.624 225.496L234.239 225.86L235.334 227.076L239.054 223.629L238.88 223.429C238.726 223.507 238.607 223.56 238.532 223.579C238.456 223.597 238.381 223.597 238.308 223.579C238.234 223.56 238.149 223.513 238.059 223.441C237.969 223.369 237.841 223.249 237.673 223.065L234.512 219.594C234.332 219.396 234.21 219.242 234.139 219.13C234.069 219.018 234.044 218.908 234.052 218.804C234.06 218.7 234.126 218.548 234.251 218.353L234.064 218.165Z" fill="#ECECEC" stroke="#808080" stroke-width="0.384615"/>
<path d="M213.444 173.391L204.374 187.619L189.257 191.887L199.839 204.692L198.327 221.765L213.444 216.074L228.561 221.765L227.049 204.692L237.631 191.887L222.514 187.619L213.444 173.391Z" fill="#ECECEC" stroke="#808080" stroke-width="0.769226"/>
<path d="M217.982 206.822L208.865 206.799L206.068 197.22L213.456 191.323L220.819 197.257L217.982 206.822Z" fill="#ECECEC" stroke="#808080" stroke-width="0.769226"/>
<path d="M213.469 173.541L213.462 199.446" stroke="#808080" stroke-width="0.769226"/>
<path d="M237.6 191.895L213.4 199.549" stroke="#808080" stroke-width="0.769226"/>
<path d="M189.269 191.895L213.469 199.549" stroke="#808080" stroke-width="0.769226"/>
<path d="M228.456 221.656L213.467 199.526" stroke="#808080" stroke-width="0.769226"/>
<path d="M198.45 221.656L213.439 199.526" stroke="#808080" stroke-width="0.769226"/>
<path d="M211.8 198.378C211.8 199.881 210.731 201.099 209.411 201.099C208.092 201.099 207.022 199.881 207.022 198.378C207.022 196.874 208.092 195.656 209.411 195.656C210.731 195.656 211.8 196.874 211.8 198.378Z" fill="#ECECEC" stroke="#808080" stroke-width="0.769226" stroke-linejoin="round"/>
<path d="M194.908 191.973C194.908 192.673 194.41 193.241 193.796 193.241C193.182 193.241 192.684 192.673 192.684 191.973C192.684 191.273 193.182 190.706 193.796 190.706C194.41 190.706 194.908 191.273 194.908 191.973Z" fill="#ECECEC" stroke="#808080" stroke-width="0.769226" stroke-linejoin="round"/>
<path d="M199.517 191.976C199.517 193.29 198.582 194.355 197.429 194.355C196.276 194.355 195.341 193.29 195.341 191.976C195.341 190.662 196.276 189.597 197.429 189.597C198.582 189.597 199.517 190.662 199.517 191.976Z" fill="#ECECEC" stroke="#808080" stroke-width="0.769226" stroke-linejoin="round"/>
<path d="M205.694 192.168C205.694 193.979 204.406 195.447 202.817 195.447C201.227 195.447 199.939 193.979 199.939 192.168C199.939 190.357 201.227 188.889 202.817 188.889C204.406 188.889 205.694 190.357 205.694 192.168Z" fill="#ECECEC" stroke="#808080" stroke-width="0.769226" stroke-linejoin="round"/>
<path d="M215.043 178.068C214.447 178.238 213.843 177.824 213.694 177.145C213.546 176.466 213.908 175.778 214.504 175.609C215.1 175.439 215.704 175.853 215.853 176.532C216.001 177.211 215.639 177.899 215.043 178.068Z" fill="#ECECEC" stroke="#808080" stroke-width="0.769952" stroke-linejoin="round"/>
<path d="M216.231 182.893C215.112 183.211 213.979 182.436 213.699 181.161C213.42 179.886 214.101 178.595 215.219 178.277C216.338 177.959 217.471 178.734 217.751 180.009C218.03 181.283 217.349 182.575 216.231 182.893Z" fill="#ECECEC" stroke="#808080" stroke-width="0.769952" stroke-linejoin="round"/>
<path d="M217.914 189.402C216.372 189.841 214.81 188.772 214.425 187.015C214.04 185.258 214.978 183.478 216.52 183.039C218.062 182.601 219.624 183.669 220.009 185.427C220.394 187.184 219.456 188.964 217.914 189.402Z" fill="#ECECEC" stroke="#808080" stroke-width="0.769952" stroke-linejoin="round"/>
<path d="M212.037 178.1C211.426 178.032 210.979 177.412 211.039 176.715C211.099 176.019 211.643 175.509 212.254 175.577C212.866 175.646 213.313 176.266 213.253 176.962C213.193 177.659 212.649 178.168 212.037 178.1Z" fill="#ECECEC" stroke="#808080" stroke-width="0.76935" stroke-linejoin="round"/>
<path d="M211.06 182.953C209.913 182.825 209.073 181.661 209.186 180.353C209.298 179.045 210.32 178.089 211.467 178.217C212.615 178.345 213.454 179.509 213.342 180.817C213.23 182.125 212.208 183.081 211.06 182.953Z" fill="#ECECEC" stroke="#808080" stroke-width="0.76935" stroke-linejoin="round"/>
<path d="M209.43 189.485C207.848 189.308 206.691 187.704 206.846 185.902C207.001 184.099 208.409 182.781 209.991 182.958C211.572 183.134 212.729 184.738 212.574 186.541C212.419 188.343 211.012 189.661 209.43 189.485Z" fill="#ECECEC" stroke="#808080" stroke-width="0.769349" stroke-linejoin="round"/>
<path d="M194.074 195.136C193.798 195.761 193.129 196.012 192.58 195.697C192.032 195.382 191.811 194.62 192.088 193.995C192.365 193.37 193.033 193.119 193.582 193.434C194.13 193.749 194.351 194.511 194.074 195.136Z" fill="#ECECEC" stroke="#808080" stroke-width="0.771347" stroke-linejoin="round"/>
<path d="M197.961 197.772C197.442 198.946 196.186 199.417 195.156 198.825C194.127 198.234 193.713 196.803 194.232 195.63C194.752 194.456 196.007 193.985 197.037 194.577C198.067 195.168 198.481 196.599 197.961 197.772Z" fill="#ECECEC" stroke="#808080" stroke-width="0.771347" stroke-linejoin="round"/>
<path d="M203.379 200.95C202.663 202.567 200.933 203.216 199.513 202.401C198.094 201.585 197.524 199.613 198.24 197.996C198.955 196.379 200.686 195.729 202.105 196.545C203.524 197.361 204.095 199.333 203.379 200.95Z" fill="#ECECEC" stroke="#808080" stroke-width="0.771347" stroke-linejoin="round"/>
<path d="M203.356 217.424C203.819 217.884 203.866 218.685 203.461 219.212C203.057 219.739 202.354 219.792 201.892 219.331C201.43 218.871 201.383 218.07 201.787 217.543C202.191 217.016 202.894 216.963 203.356 217.424Z" fill="#ECECEC" stroke="#808080" stroke-width="0.772441" stroke-linejoin="round"/>
<path d="M206.881 214.229C207.749 215.094 207.837 216.597 207.078 217.586C206.318 218.575 204.999 218.675 204.131 217.81C203.263 216.945 203.175 215.442 203.934 214.453C204.693 213.464 206.013 213.363 206.881 214.229Z" fill="#ECECEC" stroke="#808080" stroke-width="0.772441" stroke-linejoin="round"/>
<path d="M211.462 209.656C212.659 210.849 212.78 212.92 211.734 214.283C210.687 215.647 208.869 215.785 207.673 214.593C206.476 213.401 206.355 211.329 207.401 209.966C208.448 208.603 210.266 208.464 211.462 209.656Z" fill="#ECECEC" stroke="#808080" stroke-width="0.772441" stroke-linejoin="round"/>
<path d="M200.497 215.852C201.063 216.124 201.328 216.868 201.089 217.512C200.85 218.157 200.198 218.459 199.632 218.187C199.066 217.915 198.801 217.171 199.04 216.526C199.279 215.882 199.931 215.58 200.497 215.852Z" fill="#ECECEC" stroke="#808080" stroke-width="0.770912" stroke-linejoin="round"/>
<path d="M202.15 211.057C203.212 211.568 203.71 212.964 203.261 214.174C202.813 215.385 201.588 215.952 200.525 215.44C199.463 214.929 198.965 213.534 199.414 212.323C199.863 211.113 201.088 210.546 202.15 211.057Z" fill="#ECECEC" stroke="#808080" stroke-width="0.770912" stroke-linejoin="round"/>
<path d="M204.424 204.65C205.888 205.355 206.574 207.278 205.956 208.947C205.337 210.615 203.649 211.396 202.185 210.692C200.721 209.987 200.035 208.064 200.653 206.395C201.271 204.727 202.96 203.946 204.424 204.65Z" fill="#ECECEC" stroke="#808080" stroke-width="0.770912" stroke-linejoin="round"/>
<path d="M223.418 217.591C223.799 217.042 224.499 216.949 224.98 217.384C225.462 217.818 225.544 218.615 225.163 219.164C224.782 219.713 224.082 219.806 223.6 219.371C223.119 218.937 223.037 218.14 223.418 217.591Z" fill="#ECECEC" stroke="#808080" stroke-width="0.772326" stroke-linejoin="round"/>
<path d="M219.68 214.543C220.396 213.513 221.709 213.338 222.614 214.153C223.518 214.969 223.671 216.465 222.956 217.495C222.24 218.526 220.927 218.701 220.023 217.885C219.118 217.07 218.965 215.574 219.68 214.543Z" fill="#ECECEC" stroke="#808080" stroke-width="0.772326" stroke-linejoin="round"/>
<path d="M215.031 210.09C216.017 208.67 217.827 208.429 219.074 209.553C220.321 210.676 220.532 212.739 219.546 214.159C218.56 215.579 216.75 215.82 215.503 214.697C214.256 213.573 214.045 211.511 215.031 210.09Z" fill="#ECECEC" stroke="#808080" stroke-width="0.772326" stroke-linejoin="round"/>
<path d="M226.268 215.913C226.805 215.572 227.482 215.791 227.781 216.402C228.08 217.014 227.888 217.785 227.351 218.126C226.815 218.467 226.138 218.248 225.838 217.637C225.539 217.025 225.732 216.254 226.268 215.913Z" fill="#ECECEC" stroke="#808080" stroke-width="0.771599" stroke-linejoin="round"/>
<path d="M224.453 211.171C225.46 210.531 226.732 210.942 227.294 212.09C227.855 213.238 227.494 214.687 226.487 215.327C225.48 215.967 224.208 215.555 223.646 214.408C223.084 213.26 223.446 211.811 224.453 211.171Z" fill="#ECECEC" stroke="#808080" stroke-width="0.771599" stroke-linejoin="round"/>
<path d="M222.291 204.807C223.679 203.925 225.432 204.492 226.206 206.074C226.98 207.656 226.482 209.653 225.094 210.535C223.706 211.417 221.953 210.85 221.179 209.268C220.405 207.687 220.903 205.689 222.291 204.807Z" fill="#ECECEC" stroke="#808080" stroke-width="0.771599" stroke-linejoin="round"/>
<path d="M233.027 195.318C232.662 194.755 232.767 193.962 233.262 193.546C233.756 193.131 234.452 193.25 234.817 193.814C235.182 194.377 235.077 195.17 234.582 195.586C234.088 196.001 233.392 195.882 233.027 195.318Z" fill="#ECECEC" stroke="#808080" stroke-width="0.772216" stroke-linejoin="round"/>
<path d="M229.224 198.114C228.539 197.057 228.737 195.567 229.665 194.787C230.593 194.007 231.9 194.232 232.585 195.289C233.269 196.346 233.072 197.836 232.144 198.616C231.216 199.396 229.909 199.171 229.224 198.114Z" fill="#ECECEC" stroke="#808080" stroke-width="0.772216" stroke-linejoin="round"/>
<path d="M223.9 201.42C222.956 199.963 223.228 197.91 224.507 196.835C225.786 195.76 227.588 196.069 228.531 197.527C229.475 198.984 229.203 201.037 227.924 202.112C226.645 203.187 224.843 202.878 223.9 201.42Z" fill="#ECECEC" stroke="#808080" stroke-width="0.772216" stroke-linejoin="round"/>
<path d="M232.048 192.232C231.922 191.547 232.308 190.876 232.909 190.733C233.51 190.589 234.1 191.029 234.225 191.714C234.351 192.399 233.965 193.07 233.364 193.213C232.763 193.357 232.174 192.917 232.048 192.232Z" fill="#ECECEC" stroke="#808080" stroke-width="0.769753" stroke-linejoin="round"/>
<path d="M227.411 192.462C227.175 191.176 227.899 189.915 229.028 189.647C230.157 189.378 231.263 190.202 231.499 191.489C231.735 192.775 231.011 194.036 229.882 194.304C228.753 194.573 227.647 193.748 227.411 192.462Z" fill="#ECECEC" stroke="#808080" stroke-width="0.769753" stroke-linejoin="round"/>
<path d="M221.274 192.838C220.949 191.065 221.947 189.328 223.503 188.957C225.059 188.587 226.583 189.724 226.909 191.496C227.234 193.269 226.236 195.007 224.68 195.377C223.124 195.748 221.6 194.611 221.274 192.838Z" fill="#ECECEC" stroke="#808080" stroke-opacity="0.941176" stroke-width="0.769753" stroke-linejoin="round"/>
<path d="M210.506 192.139C210.506 193.517 209.526 194.634 208.316 194.634C207.107 194.634 206.127 193.517 206.127 192.139C206.127 190.761 207.107 189.644 208.316 189.644C209.526 189.644 210.506 190.761 210.506 192.139Z" fill="#ECECEC" stroke="#808080" stroke-width="0.769226" stroke-linejoin="round"/>
<path d="M220.771 192.139C220.771 193.517 219.79 194.634 218.581 194.634C217.372 194.634 216.391 193.517 216.391 192.139C216.391 190.761 217.372 189.644 218.581 189.644C219.79 189.644 220.771 190.761 220.771 192.139Z" fill="#ECECEC" stroke="#808080" stroke-width="0.769226" stroke-linejoin="round"/>
<path d="M223.384 202.266C223.384 203.644 222.403 204.761 221.194 204.761C219.985 204.761 219.004 203.644 219.004 202.266C219.004 200.888 219.985 199.771 221.194 199.771C222.403 199.771 223.384 200.888 223.384 202.266Z" fill="#ECECEC" stroke="#808080" stroke-width="0.769226" stroke-linejoin="round"/>
<path d="M215.657 209.036C215.657 210.414 214.677 211.531 213.468 211.531C212.258 211.531 211.278 210.414 211.278 209.036C211.278 207.658 212.258 206.541 213.468 206.541C214.677 206.541 215.657 207.658 215.657 209.036Z" fill="#ECECEC" stroke="#808080" stroke-width="0.769226" stroke-linejoin="round"/>
<path d="M207.857 202.266C207.857 203.644 206.876 204.761 205.667 204.761C204.458 204.761 203.477 203.644 203.477 202.266C203.477 200.888 204.458 199.771 205.667 199.771C206.876 199.771 207.857 200.888 207.857 202.266Z" fill="#ECECEC" stroke="#808080" stroke-width="0.769226" stroke-linejoin="round"/>
<path d="M215.844 194.938C215.844 196.441 214.775 197.66 213.455 197.66C212.136 197.66 211.066 196.441 211.066 194.938C211.066 193.435 212.136 192.216 213.455 192.216C214.775 192.216 215.844 193.435 215.844 194.938Z" fill="#ECECEC" stroke="#808080" stroke-width="0.769226" stroke-linejoin="round"/>
<path d="M213.231 203.822C213.231 205.325 212.162 206.544 210.842 206.544C209.523 206.544 208.453 205.325 208.453 203.822C208.453 202.318 209.523 201.1 210.842 201.1C212.162 201.1 213.231 202.318 213.231 203.822Z" fill="#ECECEC" stroke="#808080" stroke-width="0.769226" stroke-linejoin="round"/>
<path d="M218.444 203.822C218.444 205.325 217.375 206.544 216.055 206.544C214.736 206.544 213.667 205.325 213.667 203.822C213.667 202.318 214.736 201.1 216.055 201.1C217.375 201.1 218.444 202.318 218.444 203.822Z" fill="#ECECEC" stroke="#808080" stroke-width="0.769226" stroke-linejoin="round"/>
<path d="M219.876 198.378C219.876 199.881 218.806 201.099 217.487 201.099C216.168 201.099 215.098 199.881 215.098 198.378C215.098 196.874 216.168 195.656 217.487 195.656C218.806 195.656 219.876 196.874 219.876 198.378Z" fill="#ECECEC" stroke="#808080" stroke-width="0.769226" stroke-linejoin="round"/>
<path d="M215.667 199.731C215.667 201.109 214.686 202.226 213.477 202.226C212.268 202.226 211.287 201.109 211.287 199.731C211.287 198.353 212.268 197.236 213.477 197.236C214.686 197.236 215.667 198.353 215.667 199.731Z" fill="#ECECEC" stroke="#808080" stroke-width="0.769226" stroke-linejoin="round"/>
</g>
<defs>
<clipPath id="clip0_106_325">
<rect width="300" height="300" fill="white"/>
</clipPath>
<clipPath id="clip1_106_325">
<rect width="150" height="150" fill="white"/>
</clipPath>
</defs>
</svg>
